<svg xmlns="http://www.w3.org/2000/svg" xmlns:xlink="http://www.w3.org/1999/xlink" width="5760" zoomAndPan="magnify" viewBox="0 0 4320 2430.000006" height="3240" preserveAspectRatio="xMidYMid meet" version="1.2"><defs/><g id="f4b0b47d4c"><g style="fill:#ffffff;fill-opacity:1;"><g transform="translate(1732.602227, 840.274416)"><path style="stroke:none" d="M -28.390625 -602.515625 L -28.390625 -606.078125 C -9.460938 -607.492188 11.117188 -611.515625 33.359375 -618.140625 C 55.597656 -624.765625 77.597656 -632.6875 99.359375 -641.90625 C 121.117188 -651.132812 140.988281 -660.476562 158.96875 -669.9375 C 176.945312 -679.40625 190.90625 -687.925781 200.84375 -695.5 L 200.84375 -88.71875 C 200.84375 -71.207031 202.972656 -53.816406 207.234375 -36.546875 C 211.492188 -19.273438 217.644531 -7.09375 225.6875 0 L 16.328125 0 C 24.367188 -7.09375 30.515625 -19.15625 34.765625 -36.1875 C 39.023438 -53.226562 41.15625 -70.5 41.15625 -88 L 41.15625 -501.046875 C 41.15625 -506.253906 40.679688 -514.296875 39.734375 -525.171875 C 38.796875 -536.046875 36.195312 -547.394531 31.9375 -559.21875 C 27.675781 -571.050781 20.8125 -581.222656 11.34375 -589.734375 C 1.882812 -598.253906 -11.359375 -602.515625 -28.390625 -602.515625 Z M -28.390625 -602.515625 "/></g></g><g style="fill:#ffffff;fill-opacity:1;"><g transform="translate(1972.481347, 840.274416)"><path style="stroke:none" d="M 305.171875 10.640625 C 265.898438 10.640625 229.113281 2.007812 194.8125 -15.25 C 160.507812 -32.519531 130.347656 -57.003906 104.328125 -88.703125 C 78.304688 -120.410156 57.960938 -157.789062 43.296875 -200.84375 C 28.628906 -243.894531 21.296875 -291.207031 21.296875 -342.78125 C 21.296875 -394.351562 28.628906 -441.664062 43.296875 -484.71875 C 57.960938 -527.769531 78.304688 -565.023438 104.328125 -596.484375 C 130.347656 -627.953125 160.507812 -652.320312 194.8125 -669.59375 C 229.113281 -686.863281 265.898438 -695.5 305.171875 -695.5 C 344.441406 -695.5 381.109375 -686.863281 415.171875 -669.59375 C 449.242188 -652.320312 479.285156 -627.953125 505.296875 -596.484375 C 531.316406 -565.023438 551.660156 -527.769531 566.328125 -484.71875 C 580.992188 -441.664062 588.328125 -394.351562 588.328125 -342.78125 C 588.328125 -291.207031 580.992188 -243.894531 566.328125 -200.84375 C 551.660156 -157.789062 531.316406 -120.410156 505.296875 -88.703125 C 479.285156 -57.003906 449.242188 -32.519531 415.171875 -15.25 C 381.109375 2.007812 344.441406 10.640625 305.171875 10.640625 Z M 183.8125 -342.78125 C 183.8125 -300.675781 189.25 -263.0625 200.125 -229.9375 C 211.007812 -196.820312 225.675781 -170.921875 244.125 -152.234375 C 262.582031 -133.546875 282.929688 -124.203125 305.171875 -124.203125 C 327.410156 -124.203125 347.632812 -133.546875 365.84375 -152.234375 C 384.0625 -170.921875 398.613281 -196.820312 409.5 -229.9375 C 420.382812 -263.0625 425.828125 -300.675781 425.828125 -342.78125 C 425.828125 -384.894531 420.382812 -422.273438 409.5 -454.921875 C 398.613281 -487.566406 384.0625 -513.226562 365.84375 -531.90625 C 347.632812 -550.59375 327.410156 -559.9375 305.171875 -559.9375 C 282.929688 -559.9375 262.582031 -550.59375 244.125 -531.90625 C 225.675781 -513.226562 211.007812 -487.566406 200.125 -454.921875 C 189.25 -422.273438 183.8125 -384.894531 183.8125 -342.78125 Z M 183.8125 -342.78125 "/></g></g><g style="fill:#ffffff;fill-opacity:1;"><g transform="translate(2582.119785, 840.274416)"><path style="stroke:none" d=""/></g></g><g style="fill:#ffffff;fill-opacity:1;"><g transform="translate(368.159611, 1587.466839)"><path style="stroke:none" d="M 223.5625 0 L 14.1875 0 C 22.238281 -7.09375 28.390625 -19.15625 32.640625 -36.1875 C 36.898438 -53.226562 39.03125 -70.5 39.03125 -88 L 39.03125 -596.84375 C 39.03125 -614.820312 36.898438 -632.207031 32.640625 -649 C 28.390625 -665.800781 22.238281 -677.75 14.1875 -684.84375 L 198.71875 -684.84375 L 356.265625 -323.625 L 513.09375 -684.84375 L 697.625 -684.84375 C 689.582031 -677.75 683.429688 -665.800781 679.171875 -649 C 674.910156 -632.207031 672.78125 -614.820312 672.78125 -596.84375 L 672.78125 -88 C 672.78125 -70.5 674.910156 -53.226562 679.171875 -36.1875 C 683.429688 -19.15625 689.582031 -7.09375 697.625 0 L 488.28125 0 C 496.320312 -7.09375 502.46875 -19.273438 506.71875 -36.546875 C 510.96875 -53.816406 513.09375 -71.207031 513.09375 -88.71875 L 513.09375 -395.296875 L 356.265625 -19.875 L 198.71875 -397.4375 L 198.71875 -88.71875 C 198.71875 -71.207031 200.84375 -53.816406 205.09375 -36.546875 C 209.351562 -19.273438 215.507812 -7.09375 223.5625 0 Z M 223.5625 0 "/></g></g><g style="fill:#ffffff;fill-opacity:1;"><g transform="translate(1140.315638, 1587.466839)"><path style="stroke:none" d="M 74.515625 0 C 63.160156 -33.59375 53.816406 -65.175781 46.484375 -94.75 C 39.148438 -124.320312 33.707031 -154.71875 30.15625 -185.9375 C 26.613281 -217.164062 24.84375 -251.941406 24.84375 -290.265625 C 24.84375 -329.066406 29.804688 -367.984375 39.734375 -407.015625 C 49.671875 -446.046875 64.457031 -482.828125 84.09375 -517.359375 C 103.726562 -551.898438 127.859375 -582.535156 156.484375 -609.265625 C 185.109375 -635.992188 218.347656 -657.046875 256.203125 -672.421875 C 294.054688 -687.804688 335.929688 -695.5 381.828125 -695.5 C 404.054688 -695.5 425.816406 -693.015625 447.109375 -688.046875 C 468.398438 -683.078125 487.320312 -675.859375 503.875 -666.390625 C 520.4375 -656.929688 532.03125 -645.816406 538.65625 -633.046875 L 538.65625 -88.71875 C 538.65625 -71.207031 540.78125 -53.816406 545.03125 -36.546875 C 549.289062 -19.273438 555.441406 -7.09375 563.484375 0 L 354.140625 0 C 362.179688 -7.09375 368.332031 -19.15625 372.59375 -36.1875 C 376.851562 -53.226562 378.984375 -70.5 378.984375 -88 L 378.984375 -204.390625 L 188.78125 -204.390625 C 193.988281 -164.171875 203.453125 -127.382812 217.171875 -94.03125 C 230.890625 -60.675781 248.867188 -29.332031 271.109375 0 Z M 189.484375 -339.234375 L 378.984375 -339.234375 L 379.6875 -549.296875 C 348.457031 -549.296875 321.722656 -542.910156 299.484375 -530.140625 C 277.253906 -517.367188 258.566406 -500.457031 243.421875 -479.40625 C 228.285156 -458.351562 216.457031 -435.640625 207.9375 -411.265625 C 199.425781 -386.898438 193.273438 -362.890625 189.484375 -339.234375 Z M 189.484375 -339.234375 "/></g></g><g style="fill:#ffffff;fill-opacity:1;"><g transform="translate(1771.241033, 1587.466839)"><path style="stroke:none" d="M 39.03125 -596.140625 C 39.03125 -614.117188 36.898438 -631.625 32.640625 -648.65625 C 28.390625 -665.6875 22.238281 -677.75 14.1875 -684.84375 L 310.84375 -684.84375 C 338.757812 -684.84375 366.789062 -680.226562 394.9375 -671 C 423.09375 -661.78125 448.765625 -647.941406 471.953125 -629.484375 C 495.140625 -611.035156 513.707031 -588.207031 527.65625 -561 C 541.601562 -533.800781 548.578125 -502.226562 548.578125 -466.28125 C 548.578125 -417.070312 535.210938 -376.144531 508.484375 -343.5 C 481.765625 -310.851562 447.347656 -288.140625 405.234375 -275.359375 L 445.6875 -168.203125 C 465.5625 -115.679688 484.007812 -76.171875 501.03125 -49.671875 C 518.0625 -23.179688 533.203125 -6.625 546.453125 0 L 312.265625 0 C 317.472656 -6.144531 320.429688 -14.894531 321.140625 -26.25 C 321.847656 -37.613281 318.890625 -51.335938 312.265625 -67.421875 L 198.71875 -382.53125 L 198.71875 -88 C 198.71875 -70.5 200.84375 -53.226562 205.09375 -36.1875 C 209.351562 -19.15625 215.507812 -7.09375 223.5625 0 L 14.1875 0 C 22.238281 -7.09375 28.390625 -19.273438 32.640625 -36.546875 C 36.898438 -53.816406 39.03125 -71.207031 39.03125 -88.71875 Z M 198.71875 -382.53125 L 300.203125 -382.53125 C 320.546875 -382.53125 337.34375 -386.785156 350.59375 -395.296875 C 363.84375 -403.816406 373.78125 -414.582031 380.40625 -427.59375 C 387.03125 -440.601562 390.34375 -453.5 390.34375 -466.28125 C 390.34375 -488.507812 382.890625 -508.019531 367.984375 -524.8125 C 353.078125 -541.601562 330.957031 -550 301.625 -550 L 198.71875 -550 Z M 198.71875 -382.53125 "/></g></g><g style="fill:#ffffff;fill-opacity:1;"><g transform="translate(2394.359644, 1587.466839)"><path style="stroke:none" d="M 14.1875 0 C 22.238281 -7.09375 28.390625 -19.273438 32.640625 -36.546875 C 36.898438 -53.816406 39.03125 -71.207031 39.03125 -88.71875 L 39.03125 -596.140625 C 39.03125 -614.117188 36.898438 -631.625 32.640625 -648.65625 C 28.390625 -665.6875 22.238281 -677.75 14.1875 -684.84375 L 223.5625 -684.84375 C 215.507812 -677.75 209.351562 -665.800781 205.09375 -649 C 200.84375 -632.207031 198.71875 -614.820312 198.71875 -596.84375 L 198.71875 -88 C 198.71875 -70.5 200.84375 -53.226562 205.09375 -36.1875 C 209.351562 -19.15625 215.507812 -7.09375 223.5625 0 Z M 14.1875 0 "/></g></g><g style="fill:#ffffff;fill-opacity:1;"><g transform="translate(2692.434845, 1587.466839)"><path style="stroke:none" d="M 14.1875 -684.84375 L 198.71875 -684.84375 L 391.75 -324.328125 L 391.75 -596.140625 C 391.75 -614.117188 389.617188 -631.625 385.359375 -648.65625 C 381.109375 -665.6875 374.960938 -677.75 366.921875 -684.84375 L 576.265625 -684.84375 C 568.222656 -677.75 562.070312 -665.800781 557.8125 -649 C 553.550781 -632.207031 551.421875 -614.820312 551.421875 -596.84375 L 551.421875 -88 C 551.421875 -70.5 553.550781 -53.226562 557.8125 -36.1875 C 562.070312 -19.15625 568.222656 -7.09375 576.265625 0 L 391.75 0 L 198.71875 -360.53125 L 198.71875 -88.71875 C 198.71875 -71.207031 200.84375 -53.816406 205.09375 -36.546875 C 209.351562 -19.273438 215.507812 -7.09375 223.5625 0 L 14.1875 0 C 22.238281 -7.09375 28.390625 -19.15625 32.640625 -36.1875 C 36.898438 -53.226562 39.03125 -70.5 39.03125 -88 L 39.03125 -596.84375 C 39.03125 -614.820312 36.898438 -632.207031 32.640625 -649 C 28.390625 -665.800781 22.238281 -677.75 14.1875 -684.84375 Z M 14.1875 -684.84375 "/></g></g><g style="fill:#ffffff;fill-opacity:1;"><g transform="translate(3343.231824, 1587.466839)"><path style="stroke:none" d="M 74.515625 0 C 63.160156 -33.59375 53.816406 -65.175781 46.484375 -94.75 C 39.148438 -124.320312 33.707031 -154.71875 30.15625 -185.9375 C 26.613281 -217.164062 24.84375 -251.941406 24.84375 -290.265625 C 24.84375 -329.066406 29.804688 -367.984375 39.734375 -407.015625 C 49.671875 -446.046875 64.457031 -482.828125 84.09375 -517.359375 C 103.726562 -551.898438 127.859375 -582.535156 156.484375 -609.265625 C 185.109375 -635.992188 218.347656 -657.046875 256.203125 -672.421875 C 294.054688 -687.804688 335.929688 -695.5 381.828125 -695.5 C 404.054688 -695.5 425.816406 -693.015625 447.109375 -688.046875 C 468.398438 -683.078125 487.320312 -675.859375 503.875 -666.390625 C 520.4375 -656.929688 532.03125 -645.816406 538.65625 -633.046875 L 538.65625 -88.71875 C 538.65625 -71.207031 540.78125 -53.816406 545.03125 -36.546875 C 549.289062 -19.273438 555.441406 -7.09375 563.484375 0 L 354.140625 0 C 362.179688 -7.09375 368.332031 -19.15625 372.59375 -36.1875 C 376.851562 -53.226562 378.984375 -70.5 378.984375 -88 L 378.984375 -204.390625 L 188.78125 -204.390625 C 193.988281 -164.171875 203.453125 -127.382812 217.171875 -94.03125 C 230.890625 -60.675781 248.867188 -29.332031 271.109375 0 Z M 189.484375 -339.234375 L 378.984375 -339.234375 L 379.6875 -549.296875 C 348.457031 -549.296875 321.722656 -542.910156 299.484375 -530.140625 C 277.253906 -517.367188 258.566406 -500.457031 243.421875 -479.40625 C 228.285156 -458.351562 216.457031 -435.640625 207.9375 -411.265625 C 199.425781 -386.898438 193.273438 -362.890625 189.484375 -339.234375 Z M 189.484375 -339.234375 "/></g></g><g style="fill:#ffffff;fill-opacity:1;"><g transform="translate(3974.163816, 1587.466839)"><path style="stroke:none" d=""/></g></g><g style="fill:#ffffff;fill-opacity:1;"><g transform="translate(1219.633566, 2345.836675)"><path style="stroke:none" d="M 39.03125 -596.84375 C 39.03125 -614.820312 36.898438 -632.207031 32.640625 -649 C 28.390625 -665.800781 22.238281 -677.75 14.1875 -684.84375 L 348.46875 -684.84375 C 372.59375 -684.84375 396.242188 -681.054688 419.421875 -673.484375 C 442.609375 -665.921875 463.425781 -654.804688 481.875 -640.140625 C 500.332031 -625.472656 515 -607.609375 525.875 -586.546875 C 536.757812 -565.492188 542.203125 -541.484375 542.203125 -514.515625 C 542.203125 -479.515625 532.625 -448.648438 513.46875 -421.921875 C 494.3125 -395.191406 469.117188 -376.617188 437.890625 -366.203125 C 453.503906 -366.203125 469.585938 -363.242188 486.140625 -357.328125 C 502.703125 -351.421875 518.195312 -341.84375 532.625 -328.59375 C 547.050781 -315.34375 558.757812 -298.070312 567.75 -276.78125 C 576.738281 -255.488281 581.234375 -229.941406 581.234375 -200.140625 C 581.234375 -165.597656 572.003906 -133.066406 553.546875 -102.546875 C 535.097656 -72.035156 506.832031 -47.316406 468.75 -28.390625 C 430.664062 -9.460938 382.523438 0 324.328125 0 L 14.1875 0 C 22.238281 -7.09375 28.390625 -19.15625 32.640625 -36.1875 C 36.898438 -53.226562 39.03125 -70.5 39.03125 -88 Z M 320.78125 -296.65625 L 198.71875 -296.65625 L 198.71875 -133.421875 L 320.78125 -133.421875 C 355.789062 -133.421875 381.335938 -141.226562 397.421875 -156.84375 C 413.515625 -172.457031 421.5625 -191.859375 421.5625 -215.046875 C 421.5625 -238.703125 413.515625 -258.21875 397.421875 -273.59375 C 381.335938 -288.96875 355.789062 -296.65625 320.78125 -296.65625 Z M 198.71875 -551.421875 L 198.71875 -423.6875 L 312.265625 -423.6875 C 331.671875 -423.6875 347.878906 -429.957031 360.890625 -442.5 C 373.898438 -455.039062 380.40625 -470.0625 380.40625 -487.5625 C 380.40625 -505.0625 373.898438 -520.078125 360.890625 -532.609375 C 347.878906 -545.148438 331.671875 -551.421875 312.265625 -551.421875 Z M 198.71875 -551.421875 "/></g></g><g style="fill:#ffffff;fill-opacity:1;"><g transform="translate(1875.398211, 2345.836675)"><path style="stroke:none" d="M 74.515625 0 C 63.160156 -33.59375 53.816406 -65.175781 46.484375 -94.75 C 39.148438 -124.320312 33.707031 -154.71875 30.15625 -185.9375 C 26.613281 -217.164062 24.84375 -251.941406 24.84375 -290.265625 C 24.84375 -329.066406 29.804688 -367.984375 39.734375 -407.015625 C 49.671875 -446.046875 64.457031 -482.828125 84.09375 -517.359375 C 103.726562 -551.898438 127.859375 -582.535156 156.484375 -609.265625 C 185.109375 -635.992188 218.347656 -657.046875 256.203125 -672.421875 C 294.054688 -687.804688 335.929688 -695.5 381.828125 -695.5 C 404.054688 -695.5 425.816406 -693.015625 447.109375 -688.046875 C 468.398438 -683.078125 487.320312 -675.859375 503.875 -666.390625 C 520.4375 -656.929688 532.03125 -645.816406 538.65625 -633.046875 L 538.65625 -88.71875 C 538.65625 -71.207031 540.78125 -53.816406 545.03125 -36.546875 C 549.289062 -19.273438 555.441406 -7.09375 563.484375 0 L 354.140625 0 C 362.179688 -7.09375 368.332031 -19.15625 372.59375 -36.1875 C 376.851562 -53.226562 378.984375 -70.5 378.984375 -88 L 378.984375 -204.390625 L 188.78125 -204.390625 C 193.988281 -164.171875 203.453125 -127.382812 217.171875 -94.03125 C 230.890625 -60.675781 248.867188 -29.332031 271.109375 0 Z M 189.484375 -339.234375 L 378.984375 -339.234375 L 379.6875 -549.296875 C 348.457031 -549.296875 321.722656 -542.910156 299.484375 -530.140625 C 277.253906 -517.367188 258.566406 -500.457031 243.421875 -479.40625 C 228.285156 -458.351562 216.457031 -435.640625 207.9375 -411.265625 C 199.425781 -386.898438 193.273438 -362.890625 189.484375 -339.234375 Z M 189.484375 -339.234375 "/></g></g><g style="fill:#ffffff;fill-opacity:1;"><g transform="translate(2470.838228, 2345.836675)"><path style="stroke:none" d="M 7.09375 -684.84375 L 264.71875 -684.84375 C 256.195312 -674.4375 250.753906 -664.738281 248.390625 -655.75 C 246.023438 -646.757812 244.84375 -637.535156 244.84375 -628.078125 C 244.84375 -614.347656 247.328125 -597.429688 252.296875 -577.328125 C 257.265625 -557.222656 263.535156 -536.050781 271.109375 -513.8125 C 278.679688 -491.582031 286.367188 -470.054688 294.171875 -449.234375 C 301.972656 -428.421875 308.953125 -410.441406 315.109375 -395.296875 C 320.785156 -410.441406 327.644531 -428.1875 335.6875 -448.53125 C 343.726562 -468.875 351.414062 -490.160156 358.75 -512.390625 C 366.082031 -534.628906 372.234375 -555.800781 377.203125 -575.90625 C 382.171875 -596.019531 384.65625 -612.9375 384.65625 -626.65625 C 384.65625 -636.113281 383.472656 -645.335938 381.109375 -654.328125 C 378.742188 -663.316406 373.300781 -673.015625 364.78125 -683.421875 L 622.390625 -683.421875 C 610.566406 -675.859375 600.160156 -664.625 591.171875 -649.71875 C 582.179688 -634.8125 572.953125 -617.894531 563.484375 -598.96875 C 545.035156 -562.539062 528.71875 -529.78125 514.53125 -500.6875 C 500.34375 -471.59375 487.210938 -443.914062 475.140625 -417.65625 C 463.078125 -391.394531 450.65625 -364.425781 437.875 -336.75 C 425.101562 -309.070312 410.675781 -278.203125 394.59375 -244.140625 L 394.59375 -88 C 394.59375 -70.5 396.722656 -53.226562 400.984375 -36.1875 C 405.242188 -19.15625 411.394531 -7.09375 419.4375 0 L 210.078125 0 C 218.117188 -7.09375 224.265625 -19.273438 228.515625 -36.546875 C 232.773438 -53.816406 234.90625 -71.207031 234.90625 -88.71875 L 234.90625 -245.5625 C 218.820312 -279.625 204.390625 -310.492188 191.609375 -338.171875 C 178.835938 -365.847656 166.421875 -392.816406 154.359375 -419.078125 C 142.296875 -445.335938 129.164062 -473.015625 114.96875 -502.109375 C 100.78125 -531.203125 84.457031 -563.960938 66 -600.390625 C 56.539062 -619.316406 47.429688 -636.234375 38.671875 -651.140625 C 29.921875 -666.046875 19.394531 -677.28125 7.09375 -684.84375 Z M 7.09375 -684.84375 "/></g></g></g></svg>