<svg xmlns="http://www.w3.org/2000/svg" xmlns:xlink="http://www.w3.org/1999/xlink" width="794" zoomAndPan="magnify" viewBox="0 0 595.5 842.249979" height="1123" preserveAspectRatio="xMidYMid meet" version="1.2"><defs><clipPath id="018d43d31c"><path d="M 10 153 L 594.984375 153 L 594.984375 599 L 10 599 Z M 10 153 "/></clipPath><clipPath id="e6487ff5b8"><path d="M 584 264 L 584.984375 264 L 584.984375 265 L 584 265 Z M 584 264 "/></clipPath><clipPath id="4fcb36f3bd"><rect x="0" width="585" y="0" height="446"/></clipPath></defs><g id="fe146b789d"><g clip-rule="nonzero" clip-path="url(#018d43d31c)"><g transform="matrix(1,0,0,1,10,153)"><g clip-path="url(#4fcb36f3bd)"><g style="fill:#ffffff;fill-opacity:1;"><g transform="translate(218.359268, 119.198841)"><path style="stroke:none" d="M -4.59375 -97.578125 L -4.59375 -98.15625 C -1.53125 -98.382812 1.796875 -99.035156 5.390625 -100.109375 C 8.992188 -101.179688 12.554688 -102.460938 16.078125 -103.953125 C 19.609375 -105.453125 22.828125 -106.96875 25.734375 -108.5 C 28.648438 -110.03125 30.914062 -111.410156 32.53125 -112.640625 L 32.53125 -14.375 C 32.53125 -11.53125 32.875 -8.707031 33.5625 -5.90625 C 34.25 -3.113281 35.242188 -1.144531 36.546875 0 L 2.640625 0 C 3.941406 -1.144531 4.9375 -3.097656 5.625 -5.859375 C 6.320312 -8.617188 6.671875 -11.414062 6.671875 -14.25 L 6.671875 -81.140625 C 6.671875 -81.984375 6.59375 -83.285156 6.4375 -85.046875 C 6.28125 -86.816406 5.859375 -88.65625 5.171875 -90.5625 C 4.484375 -92.476562 3.375 -94.125 1.84375 -95.5 C 0.3125 -96.882812 -1.832031 -97.578125 -4.59375 -97.578125 Z M -4.59375 -97.578125 "/></g></g><g style="fill:#ffffff;fill-opacity:1;"><g transform="translate(257.208015, 119.198841)"><path style="stroke:none" d="M 49.421875 1.71875 C 43.066406 1.71875 37.109375 0.320312 31.546875 -2.46875 C 25.992188 -5.269531 21.109375 -9.234375 16.890625 -14.359375 C 12.679688 -19.492188 9.390625 -25.546875 7.015625 -32.515625 C 4.640625 -39.492188 3.453125 -47.160156 3.453125 -55.515625 C 3.453125 -63.867188 4.640625 -71.53125 7.015625 -78.5 C 9.390625 -85.476562 12.679688 -91.515625 16.890625 -96.609375 C 21.109375 -101.703125 25.992188 -105.644531 31.546875 -108.4375 C 37.109375 -111.238281 43.066406 -112.640625 49.421875 -112.640625 C 55.785156 -112.640625 61.722656 -111.238281 67.234375 -108.4375 C 72.753906 -105.644531 77.617188 -101.703125 81.828125 -96.609375 C 86.046875 -91.515625 89.34375 -85.476562 91.71875 -78.5 C 94.09375 -71.53125 95.28125 -63.867188 95.28125 -55.515625 C 95.28125 -47.160156 94.09375 -39.492188 91.71875 -32.515625 C 89.34375 -25.546875 86.046875 -19.492188 81.828125 -14.359375 C 77.617188 -9.234375 72.753906 -5.269531 67.234375 -2.46875 C 61.722656 0.320312 55.785156 1.71875 49.421875 1.71875 Z M 29.765625 -55.515625 C 29.765625 -48.691406 30.644531 -42.597656 32.40625 -37.234375 C 34.175781 -31.867188 36.550781 -27.671875 39.53125 -24.640625 C 42.519531 -21.617188 45.816406 -20.109375 49.421875 -20.109375 C 53.023438 -20.109375 56.300781 -21.617188 59.25 -24.640625 C 62.195312 -27.671875 64.550781 -31.867188 66.3125 -37.234375 C 68.082031 -42.597656 68.96875 -48.691406 68.96875 -55.515625 C 68.96875 -62.335938 68.082031 -68.390625 66.3125 -73.671875 C 64.550781 -78.960938 62.195312 -83.117188 59.25 -86.140625 C 56.300781 -89.171875 53.023438 -90.6875 49.421875 -90.6875 C 45.816406 -90.6875 42.519531 -89.171875 39.53125 -86.140625 C 36.550781 -83.117188 34.175781 -78.960938 32.40625 -73.671875 C 30.644531 -68.390625 29.765625 -62.335938 29.765625 -55.515625 Z M 29.765625 -55.515625 "/></g></g><g style="fill:#ffffff;fill-opacity:1;"><g transform="translate(355.948792, 119.198841)"><path style="stroke:none" d=""/></g></g><g style="fill:#ffffff;fill-opacity:1;"><g transform="translate(0.228718, 264.855785)"><path style="stroke:none" d="M 36.203125 0 L 2.296875 0 C 3.597656 -1.144531 4.59375 -3.097656 5.28125 -5.859375 C 5.976562 -8.617188 6.328125 -11.414062 6.328125 -14.25 L 6.328125 -96.65625 C 6.328125 -99.5625 5.976562 -102.375 5.28125 -105.09375 C 4.59375 -107.8125 3.597656 -109.75 2.296875 -110.90625 L 32.171875 -110.90625 L 57.6875 -52.40625 L 83.09375 -110.90625 L 112.96875 -110.90625 C 111.664062 -109.75 110.671875 -107.8125 109.984375 -105.09375 C 109.296875 -102.375 108.953125 -99.5625 108.953125 -96.65625 L 108.953125 -14.25 C 108.953125 -11.414062 109.296875 -8.617188 109.984375 -5.859375 C 110.671875 -3.097656 111.664062 -1.144531 112.96875 0 L 79.0625 0 C 80.363281 -1.144531 81.359375 -3.113281 82.046875 -5.90625 C 82.742188 -8.707031 83.09375 -11.523438 83.09375 -14.359375 L 83.09375 -64.015625 L 57.6875 -3.21875 L 32.171875 -64.359375 L 32.171875 -14.359375 C 32.171875 -11.523438 32.515625 -8.707031 33.203125 -5.90625 C 33.898438 -3.113281 34.898438 -1.144531 36.203125 0 Z M 36.203125 0 "/></g></g><g style="fill:#ffffff;fill-opacity:1;"><g transform="translate(125.256235, 264.855785)"><path style="stroke:none" d="M 12.0625 0 C 10.226562 -5.4375 8.71875 -10.550781 7.53125 -15.34375 C 6.34375 -20.132812 5.457031 -25.054688 4.875 -30.109375 C 4.300781 -35.160156 4.015625 -40.789062 4.015625 -47 C 4.015625 -53.28125 4.816406 -59.582031 6.421875 -65.90625 C 8.035156 -72.226562 10.429688 -78.1875 13.609375 -83.78125 C 16.796875 -89.375 20.707031 -94.332031 25.34375 -98.65625 C 29.976562 -102.988281 35.359375 -106.398438 41.484375 -108.890625 C 47.617188 -111.378906 54.398438 -112.625 61.828125 -112.625 C 65.429688 -112.625 68.957031 -112.21875 72.40625 -111.40625 C 75.851562 -110.601562 78.914062 -109.4375 81.59375 -107.90625 C 84.269531 -106.375 86.144531 -104.578125 87.21875 -102.515625 L 87.21875 -14.359375 C 87.21875 -11.523438 87.5625 -8.707031 88.25 -5.90625 C 88.945312 -3.113281 89.945312 -1.144531 91.25 0 L 57.34375 0 C 58.644531 -1.144531 59.640625 -3.097656 60.328125 -5.859375 C 61.023438 -8.617188 61.375 -11.414062 61.375 -14.25 L 61.375 -33.09375 L 30.5625 -33.09375 C 31.40625 -26.582031 32.9375 -20.625 35.15625 -15.21875 C 37.382812 -9.820312 40.300781 -4.75 43.90625 0 Z M 30.6875 -54.9375 L 61.375 -54.9375 L 61.484375 -88.953125 C 56.421875 -88.953125 52.085938 -87.914062 48.484375 -85.84375 C 44.890625 -83.78125 41.863281 -81.039062 39.40625 -77.625 C 36.957031 -74.21875 35.046875 -70.539062 33.671875 -66.59375 C 32.296875 -62.644531 31.300781 -58.757812 30.6875 -54.9375 Z M 30.6875 -54.9375 "/></g></g><g style="fill:#ffffff;fill-opacity:1;"><g transform="translate(227.415916, 264.855785)"><path style="stroke:none" d="M 6.328125 -96.53125 C 6.328125 -99.445312 5.976562 -102.28125 5.28125 -105.03125 C 4.59375 -107.789062 3.597656 -109.75 2.296875 -110.90625 L 50.328125 -110.90625 C 54.847656 -110.90625 59.390625 -110.15625 63.953125 -108.65625 C 68.515625 -107.164062 72.671875 -104.925781 76.421875 -101.9375 C 80.171875 -98.945312 83.175781 -95.25 85.4375 -90.84375 C 87.695312 -86.4375 88.828125 -81.320312 88.828125 -75.5 C 88.828125 -67.53125 86.660156 -60.898438 82.328125 -55.609375 C 78.003906 -50.328125 72.4375 -46.65625 65.625 -44.59375 L 72.171875 -27.234375 C 75.390625 -18.734375 78.375 -12.335938 81.125 -8.046875 C 83.882812 -3.753906 86.335938 -1.070312 88.484375 0 L 50.5625 0 C 51.40625 -1 51.882812 -2.414062 52 -4.25 C 52.113281 -6.09375 51.632812 -8.316406 50.5625 -10.921875 L 32.171875 -61.9375 L 32.171875 -14.25 C 32.171875 -11.414062 32.515625 -8.617188 33.203125 -5.859375 C 33.898438 -3.097656 34.898438 -1.144531 36.203125 0 L 2.296875 0 C 3.597656 -1.144531 4.59375 -3.113281 5.28125 -5.90625 C 5.976562 -8.707031 6.328125 -11.523438 6.328125 -14.359375 Z M 32.171875 -61.9375 L 48.609375 -61.9375 C 51.898438 -61.9375 54.617188 -62.625 56.765625 -64 C 58.910156 -65.382812 60.519531 -67.128906 61.59375 -69.234375 C 62.664062 -71.347656 63.203125 -73.4375 63.203125 -75.5 C 63.203125 -79.101562 61.992188 -82.265625 59.578125 -84.984375 C 57.171875 -87.703125 53.59375 -89.0625 48.84375 -89.0625 L 32.171875 -89.0625 Z M 32.171875 -61.9375 "/></g></g><g style="fill:#ffffff;fill-opacity:1;"><g transform="translate(328.311582, 264.855785)"><path style="stroke:none" d="M 2.296875 0 C 3.597656 -1.144531 4.59375 -3.113281 5.28125 -5.90625 C 5.976562 -8.707031 6.328125 -11.523438 6.328125 -14.359375 L 6.328125 -96.53125 C 6.328125 -99.445312 5.976562 -102.28125 5.28125 -105.03125 C 4.59375 -107.789062 3.597656 -109.75 2.296875 -110.90625 L 36.203125 -110.90625 C 34.898438 -109.75 33.898438 -107.8125 33.203125 -105.09375 C 32.515625 -102.375 32.171875 -99.5625 32.171875 -96.65625 L 32.171875 -14.25 C 32.171875 -11.414062 32.515625 -8.617188 33.203125 -5.859375 C 33.898438 -3.097656 34.898438 -1.144531 36.203125 0 Z M 2.296875 0 "/></g></g><g style="fill:#ffffff;fill-opacity:1;"><g transform="translate(376.576728, 264.855785)"><path style="stroke:none" d="M 2.296875 -110.90625 L 32.171875 -110.90625 L 63.4375 -52.515625 L 63.4375 -96.53125 C 63.4375 -99.445312 63.09375 -102.28125 62.40625 -105.03125 C 61.71875 -107.789062 60.722656 -109.75 59.421875 -110.90625 L 93.3125 -110.90625 C 92.007812 -109.75 91.015625 -107.8125 90.328125 -105.09375 C 89.640625 -102.375 89.296875 -99.5625 89.296875 -96.65625 L 89.296875 -14.25 C 89.296875 -11.414062 89.640625 -8.617188 90.328125 -5.859375 C 91.015625 -3.097656 92.007812 -1.144531 93.3125 0 L 63.4375 0 L 32.171875 -58.375 L 32.171875 -14.359375 C 32.171875 -11.523438 32.515625 -8.707031 33.203125 -5.90625 C 33.898438 -3.113281 34.898438 -1.144531 36.203125 0 L 2.296875 0 C 3.597656 -1.144531 4.59375 -3.097656 5.28125 -5.859375 C 5.976562 -8.617188 6.328125 -11.414062 6.328125 -14.25 L 6.328125 -96.65625 C 6.328125 -99.5625 5.976562 -102.375 5.28125 -105.09375 C 4.59375 -107.8125 3.597656 -109.75 2.296875 -110.90625 Z M 2.296875 -110.90625 "/></g></g><g style="fill:#ffffff;fill-opacity:1;"><g transform="translate(481.954002, 264.855785)"><path style="stroke:none" d="M 12.0625 0 C 10.226562 -5.4375 8.71875 -10.550781 7.53125 -15.34375 C 6.34375 -20.132812 5.457031 -25.054688 4.875 -30.109375 C 4.300781 -35.160156 4.015625 -40.789062 4.015625 -47 C 4.015625 -53.28125 4.816406 -59.582031 6.421875 -65.90625 C 8.035156 -72.226562 10.429688 -78.1875 13.609375 -83.78125 C 16.796875 -89.375 20.707031 -94.332031 25.34375 -98.65625 C 29.976562 -102.988281 35.359375 -106.398438 41.484375 -108.890625 C 47.617188 -111.378906 54.398438 -112.625 61.828125 -112.625 C 65.429688 -112.625 68.957031 -112.21875 72.40625 -111.40625 C 75.851562 -110.601562 78.914062 -109.4375 81.59375 -107.90625 C 84.269531 -106.375 86.144531 -104.578125 87.21875 -102.515625 L 87.21875 -14.359375 C 87.21875 -11.523438 87.5625 -8.707031 88.25 -5.90625 C 88.945312 -3.113281 89.945312 -1.144531 91.25 0 L 57.34375 0 C 58.644531 -1.144531 59.640625 -3.097656 60.328125 -5.859375 C 61.023438 -8.617188 61.375 -11.414062 61.375 -14.25 L 61.375 -33.09375 L 30.5625 -33.09375 C 31.40625 -26.582031 32.9375 -20.625 35.15625 -15.21875 C 37.382812 -9.820312 40.300781 -4.75 43.90625 0 Z M 30.6875 -54.9375 L 61.375 -54.9375 L 61.484375 -88.953125 C 56.421875 -88.953125 52.085938 -87.914062 48.484375 -85.84375 C 44.890625 -83.78125 41.863281 -81.039062 39.40625 -77.625 C 36.957031 -74.21875 35.046875 -70.539062 33.671875 -66.59375 C 32.296875 -62.644531 31.300781 -58.757812 30.6875 -54.9375 Z M 30.6875 -54.9375 "/></g></g><g clip-rule="nonzero" clip-path="url(#e6487ff5b8)"><g style="fill:#ffffff;fill-opacity:1;"><g transform="translate(584.120366, 264.855785)"><path style="stroke:none" d=""/></g></g></g><g style="fill:#ffffff;fill-opacity:1;"><g transform="translate(145.863597, 410.537387)"><path style="stroke:none" d="M 6.328125 -96.65625 C 6.328125 -99.5625 5.976562 -102.375 5.28125 -105.09375 C 4.59375 -107.8125 3.597656 -109.75 2.296875 -110.90625 L 56.421875 -110.90625 C 60.328125 -110.90625 64.15625 -110.289062 67.90625 -109.0625 C 71.664062 -107.832031 75.039062 -106.03125 78.03125 -103.65625 C 81.019531 -101.28125 83.394531 -98.390625 85.15625 -94.984375 C 86.914062 -91.578125 87.796875 -87.6875 87.796875 -83.3125 C 87.796875 -77.644531 86.242188 -72.644531 83.140625 -68.3125 C 80.035156 -63.988281 75.957031 -60.984375 70.90625 -59.296875 C 73.4375 -59.296875 76.039062 -58.816406 78.71875 -57.859375 C 81.40625 -56.898438 83.914062 -55.347656 86.25 -53.203125 C 88.582031 -51.054688 90.476562 -48.257812 91.9375 -44.8125 C 93.394531 -41.363281 94.125 -37.226562 94.125 -32.40625 C 94.125 -26.8125 92.628906 -21.539062 89.640625 -16.59375 C 86.648438 -11.65625 82.070312 -7.65625 75.90625 -4.59375 C 69.738281 -1.53125 61.941406 0 52.515625 0 L 2.296875 0 C 3.597656 -1.144531 4.59375 -3.097656 5.28125 -5.859375 C 5.976562 -8.617188 6.328125 -11.414062 6.328125 -14.25 Z M 51.9375 -48.03125 L 32.171875 -48.03125 L 32.171875 -21.609375 L 51.9375 -21.609375 C 57.613281 -21.609375 61.753906 -22.867188 64.359375 -25.390625 C 66.960938 -27.921875 68.265625 -31.066406 68.265625 -34.828125 C 68.265625 -38.648438 66.960938 -41.804688 64.359375 -44.296875 C 61.753906 -46.785156 57.613281 -48.03125 51.9375 -48.03125 Z M 32.171875 -89.296875 L 32.171875 -68.609375 L 50.5625 -68.609375 C 53.707031 -68.609375 56.332031 -69.625 58.4375 -71.65625 C 60.539062 -73.6875 61.59375 -76.117188 61.59375 -78.953125 C 61.59375 -81.785156 60.539062 -84.21875 58.4375 -86.25 C 56.332031 -88.28125 53.707031 -89.296875 50.5625 -89.296875 Z M 32.171875 -89.296875 "/></g></g><g style="fill:#ffffff;fill-opacity:1;"><g transform="translate(252.045264, 410.537387)"><path style="stroke:none" d="M 12.0625 0 C 10.226562 -5.4375 8.71875 -10.550781 7.53125 -15.34375 C 6.34375 -20.132812 5.457031 -25.054688 4.875 -30.109375 C 4.300781 -35.160156 4.015625 -40.789062 4.015625 -47 C 4.015625 -53.28125 4.816406 -59.582031 6.421875 -65.90625 C 8.035156 -72.226562 10.429688 -78.1875 13.609375 -83.78125 C 16.796875 -89.375 20.707031 -94.332031 25.34375 -98.65625 C 29.976562 -102.988281 35.359375 -106.398438 41.484375 -108.890625 C 47.617188 -111.378906 54.398438 -112.625 61.828125 -112.625 C 65.429688 -112.625 68.957031 -112.21875 72.40625 -111.40625 C 75.851562 -110.601562 78.914062 -109.4375 81.59375 -107.90625 C 84.269531 -106.375 86.144531 -104.578125 87.21875 -102.515625 L 87.21875 -14.359375 C 87.21875 -11.523438 87.5625 -8.707031 88.25 -5.90625 C 88.945312 -3.113281 89.945312 -1.144531 91.25 0 L 57.34375 0 C 58.644531 -1.144531 59.640625 -3.097656 60.328125 -5.859375 C 61.023438 -8.617188 61.375 -11.414062 61.375 -14.25 L 61.375 -33.09375 L 30.5625 -33.09375 C 31.40625 -26.582031 32.9375 -20.625 35.15625 -15.21875 C 37.382812 -9.820312 40.300781 -4.75 43.90625 0 Z M 30.6875 -54.9375 L 61.375 -54.9375 L 61.484375 -88.953125 C 56.421875 -88.953125 52.085938 -87.914062 48.484375 -85.84375 C 44.890625 -83.78125 41.863281 -81.039062 39.40625 -77.625 C 36.957031 -74.21875 35.046875 -70.539062 33.671875 -66.59375 C 32.296875 -62.644531 31.300781 -58.757812 30.6875 -54.9375 Z M 30.6875 -54.9375 "/></g></g><g style="fill:#ffffff;fill-opacity:1;"><g transform="translate(348.458783, 410.537387)"><path style="stroke:none" d="M 1.15625 -110.90625 L 42.859375 -110.90625 C 41.484375 -109.21875 40.601562 -107.644531 40.21875 -106.1875 C 39.832031 -104.726562 39.640625 -103.234375 39.640625 -101.703125 C 39.640625 -99.484375 40.039062 -96.742188 40.84375 -93.484375 C 41.65625 -90.234375 42.671875 -86.804688 43.890625 -83.203125 C 45.117188 -79.597656 46.363281 -76.109375 47.625 -72.734375 C 48.894531 -69.367188 50.03125 -66.460938 51.03125 -64.015625 C 51.945312 -66.460938 53.054688 -69.332031 54.359375 -72.625 C 55.660156 -75.925781 56.90625 -79.375 58.09375 -82.96875 C 59.28125 -86.570312 60.273438 -90 61.078125 -93.25 C 61.878906 -96.507812 62.28125 -99.25 62.28125 -101.46875 C 62.28125 -103.007812 62.085938 -104.503906 61.703125 -105.953125 C 61.328125 -107.410156 60.445312 -108.984375 59.0625 -110.671875 L 100.78125 -110.671875 C 98.863281 -109.441406 97.175781 -107.617188 95.71875 -105.203125 C 94.269531 -102.796875 92.78125 -100.0625 91.25 -97 C 88.257812 -91.09375 85.613281 -85.785156 83.3125 -81.078125 C 81.019531 -76.367188 78.894531 -71.882812 76.9375 -67.625 C 74.988281 -63.375 72.976562 -59.007812 70.90625 -54.53125 C 68.832031 -50.050781 66.492188 -45.050781 63.890625 -39.53125 L 63.890625 -14.25 C 63.890625 -11.414062 64.234375 -8.617188 64.921875 -5.859375 C 65.617188 -3.097656 66.617188 -1.144531 67.921875 0 L 34.015625 0 C 35.316406 -1.144531 36.3125 -3.113281 37 -5.90625 C 37.695312 -8.707031 38.046875 -11.523438 38.046875 -14.359375 L 38.046875 -39.765625 C 35.429688 -45.273438 33.085938 -50.269531 31.015625 -54.75 C 28.953125 -59.238281 26.941406 -63.609375 24.984375 -67.859375 C 23.035156 -72.109375 20.910156 -76.585938 18.609375 -81.296875 C 16.316406 -86.015625 13.675781 -91.320312 10.6875 -97.21875 C 9.15625 -100.289062 7.679688 -103.03125 6.265625 -105.4375 C 4.847656 -107.851562 3.144531 -109.675781 1.15625 -110.90625 Z M 1.15625 -110.90625 "/></g></g></g></g></g></g></svg>