<svg xmlns="http://www.w3.org/2000/svg" xmlns:xlink="http://www.w3.org/1999/xlink" width="794" zoomAndPan="magnify" viewBox="0 0 595.5 842.249979" height="1123" preserveAspectRatio="xMidYMid meet" version="1.2"><defs><clipPath id="a4e61b9e10"><rect x="0" width="571" y="0" height="205"/></clipPath></defs><g id="98d98459e7"><g transform="matrix(1,0,0,1,13,281)"><g clip-path="url(#a4e61b9e10)"><g style="fill:#ffffff;fill-opacity:1;"><g transform="translate(243.735605, 70.358023)"><path style="stroke:none" d="M -2.71875 -57.6875 L -2.71875 -58.03125 C -0.90625 -58.164062 1.0625 -58.550781 3.1875 -59.1875 C 5.320312 -59.820312 7.429688 -60.578125 9.515625 -61.453125 C 11.597656 -62.335938 13.5 -63.234375 15.21875 -64.140625 C 16.9375 -65.046875 18.273438 -65.863281 19.234375 -66.59375 L 19.234375 -8.5 C 19.234375 -6.820312 19.4375 -5.15625 19.84375 -3.5 C 20.25 -1.84375 20.835938 -0.675781 21.609375 0 L 1.5625 0 C 2.332031 -0.675781 2.921875 -1.828125 3.328125 -3.453125 C 3.734375 -5.085938 3.9375 -6.742188 3.9375 -8.421875 L 3.9375 -47.96875 C 3.9375 -48.46875 3.890625 -49.238281 3.796875 -50.28125 C 3.710938 -51.320312 3.46875 -52.410156 3.0625 -53.546875 C 2.65625 -54.679688 2 -55.65625 1.09375 -56.46875 C 0.1875 -57.28125 -1.082031 -57.6875 -2.71875 -57.6875 Z M -2.71875 -57.6875 "/></g></g><g style="fill:#ffffff;fill-opacity:1;"><g transform="translate(266.705186, 70.358023)"><path style="stroke:none" d="M 29.21875 1.015625 C 25.457031 1.015625 21.929688 0.191406 18.640625 -1.453125 C 15.359375 -3.109375 12.472656 -5.453125 9.984375 -8.484375 C 7.492188 -11.523438 5.546875 -15.109375 4.140625 -19.234375 C 2.734375 -23.359375 2.03125 -27.890625 2.03125 -32.828125 C 2.03125 -37.765625 2.734375 -42.289062 4.140625 -46.40625 C 5.546875 -50.53125 7.492188 -54.097656 9.984375 -57.109375 C 12.472656 -60.128906 15.359375 -62.460938 18.640625 -64.109375 C 21.929688 -65.765625 25.457031 -66.59375 29.21875 -66.59375 C 32.976562 -66.59375 36.488281 -65.765625 39.75 -64.109375 C 43.007812 -62.460938 45.882812 -60.128906 48.375 -57.109375 C 50.875 -54.097656 52.820312 -50.53125 54.21875 -46.40625 C 55.625 -42.289062 56.328125 -37.765625 56.328125 -32.828125 C 56.328125 -27.890625 55.625 -23.359375 54.21875 -19.234375 C 52.820312 -15.109375 50.875 -11.523438 48.375 -8.484375 C 45.882812 -5.453125 43.007812 -3.109375 39.75 -1.453125 C 36.488281 0.191406 32.976562 1.015625 29.21875 1.015625 Z M 17.59375 -32.828125 C 17.59375 -28.796875 18.113281 -25.191406 19.15625 -22.015625 C 20.195312 -18.847656 21.601562 -16.367188 23.375 -14.578125 C 25.144531 -12.785156 27.09375 -11.890625 29.21875 -11.890625 C 31.34375 -11.890625 33.273438 -12.785156 35.015625 -14.578125 C 36.765625 -16.367188 38.160156 -18.847656 39.203125 -22.015625 C 40.242188 -25.191406 40.765625 -28.796875 40.765625 -32.828125 C 40.765625 -36.859375 40.242188 -40.4375 39.203125 -43.5625 C 38.160156 -46.6875 36.765625 -49.140625 35.015625 -50.921875 C 33.273438 -52.710938 31.34375 -53.609375 29.21875 -53.609375 C 27.09375 -53.609375 25.144531 -52.710938 23.375 -50.921875 C 21.601562 -49.140625 20.195312 -46.6875 19.15625 -43.5625 C 18.113281 -40.4375 17.59375 -36.859375 17.59375 -32.828125 Z M 17.59375 -32.828125 "/></g></g><g style="fill:#ffffff;fill-opacity:1;"><g transform="translate(325.080563, 70.358023)"><path style="stroke:none" d=""/></g></g><g style="fill:#ffffff;fill-opacity:1;"><g transform="translate(1.252238, 183.656257)"><path style="stroke:none" d="M 21.09375 0 L 1.34375 0 C 2.101562 -0.664062 2.679688 -1.800781 3.078125 -3.40625 C 3.484375 -5.019531 3.6875 -6.648438 3.6875 -8.296875 L 3.6875 -56.328125 C 3.6875 -58.015625 3.484375 -59.648438 3.078125 -61.234375 C 2.679688 -62.828125 2.101562 -63.957031 1.34375 -64.625 L 18.75 -64.625 L 33.625 -30.53125 L 48.421875 -64.625 L 65.828125 -64.625 C 65.066406 -63.957031 64.484375 -62.828125 64.078125 -61.234375 C 63.679688 -59.648438 63.484375 -58.015625 63.484375 -56.328125 L 63.484375 -8.296875 C 63.484375 -6.648438 63.679688 -5.019531 64.078125 -3.40625 C 64.484375 -1.800781 65.066406 -0.664062 65.828125 0 L 46.078125 0 C 46.835938 -0.664062 47.414062 -1.8125 47.8125 -3.4375 C 48.21875 -5.070312 48.421875 -6.71875 48.421875 -8.375 L 48.421875 -37.296875 L 33.625 -1.875 L 18.75 -37.5 L 18.75 -8.375 C 18.75 -6.71875 18.945312 -5.070312 19.34375 -3.4375 C 19.75 -1.8125 20.332031 -0.664062 21.09375 0 Z M 21.09375 0 "/></g></g><g style="fill:#ffffff;fill-opacity:1;"><g transform="translate(76.115774, 183.656257)"><path style="stroke:none" d="M 7.03125 0 C 5.957031 -3.164062 5.070312 -6.144531 4.375 -8.9375 C 3.6875 -11.726562 3.175781 -14.597656 2.84375 -17.546875 C 2.507812 -20.492188 2.34375 -23.773438 2.34375 -27.390625 C 2.34375 -31.046875 2.8125 -34.71875 3.75 -38.40625 C 4.6875 -42.09375 6.082031 -45.5625 7.9375 -48.8125 C 9.789062 -52.070312 12.066406 -54.960938 14.765625 -57.484375 C 17.460938 -60.015625 20.597656 -62.003906 24.171875 -63.453125 C 27.742188 -64.898438 31.695312 -65.625 36.03125 -65.625 C 38.125 -65.625 40.175781 -65.390625 42.1875 -64.921875 C 44.195312 -64.453125 45.984375 -63.769531 47.546875 -62.875 C 49.109375 -61.988281 50.203125 -60.941406 50.828125 -59.734375 L 50.828125 -8.375 C 50.828125 -6.71875 51.023438 -5.070312 51.421875 -3.4375 C 51.828125 -1.8125 52.410156 -0.664062 53.171875 0 L 33.421875 0 C 34.179688 -0.664062 34.757812 -1.800781 35.15625 -3.40625 C 35.5625 -5.019531 35.765625 -6.648438 35.765625 -8.296875 L 35.765625 -19.28125 L 17.8125 -19.28125 C 18.300781 -15.488281 19.191406 -12.019531 20.484375 -8.875 C 21.785156 -5.726562 23.484375 -2.769531 25.578125 0 Z M 17.875 -32.015625 L 35.765625 -32.015625 L 35.828125 -51.828125 C 32.878906 -51.828125 30.351562 -51.222656 28.25 -50.015625 C 26.15625 -48.816406 24.394531 -47.222656 22.96875 -45.234375 C 21.539062 -43.242188 20.425781 -41.097656 19.625 -38.796875 C 18.820312 -36.503906 18.238281 -34.242188 17.875 -32.015625 Z M 17.875 -32.015625 "/></g></g><g style="fill:#ffffff;fill-opacity:1;"><g transform="translate(137.653933, 183.656257)"><path style="stroke:none" d="M 3.6875 -56.25 C 3.6875 -57.945312 3.484375 -59.597656 3.078125 -61.203125 C 2.679688 -62.816406 2.101562 -63.957031 1.34375 -64.625 L 29.328125 -64.625 C 31.960938 -64.625 34.609375 -64.1875 37.265625 -63.3125 C 39.921875 -62.445312 42.34375 -61.144531 44.53125 -59.40625 C 46.71875 -57.664062 48.46875 -55.507812 49.78125 -52.9375 C 51.101562 -50.375 51.765625 -47.394531 51.765625 -44 C 51.765625 -39.351562 50.503906 -35.488281 47.984375 -32.40625 C 45.460938 -29.332031 42.210938 -27.191406 38.234375 -25.984375 L 42.0625 -15.875 C 43.9375 -10.914062 45.675781 -7.1875 47.28125 -4.6875 C 48.882812 -2.1875 50.3125 -0.625 51.5625 0 L 29.46875 0 C 29.957031 -0.582031 30.234375 -1.40625 30.296875 -2.46875 C 30.367188 -3.539062 30.09375 -4.835938 29.46875 -6.359375 L 18.75 -36.09375 L 18.75 -8.296875 C 18.75 -6.648438 18.945312 -5.019531 19.34375 -3.40625 C 19.75 -1.800781 20.332031 -0.664062 21.09375 0 L 1.34375 0 C 2.101562 -0.664062 2.679688 -1.8125 3.078125 -3.4375 C 3.484375 -5.070312 3.6875 -6.71875 3.6875 -8.375 Z M 18.75 -36.09375 L 28.328125 -36.09375 C 30.242188 -36.09375 31.828125 -36.492188 33.078125 -37.296875 C 34.328125 -38.097656 35.265625 -39.113281 35.890625 -40.34375 C 36.515625 -41.570312 36.828125 -42.789062 36.828125 -44 C 36.828125 -46.09375 36.125 -47.929688 34.71875 -49.515625 C 33.3125 -51.109375 31.226562 -51.90625 28.46875 -51.90625 L 18.75 -51.90625 Z M 18.75 -36.09375 "/></g></g><g style="fill:#ffffff;fill-opacity:1;"><g transform="translate(198.455516, 183.656257)"><path style="stroke:none" d="M 1.34375 0 C 2.101562 -0.664062 2.679688 -1.8125 3.078125 -3.4375 C 3.484375 -5.070312 3.6875 -6.71875 3.6875 -8.375 L 3.6875 -56.25 C 3.6875 -57.945312 3.484375 -59.597656 3.078125 -61.203125 C 2.679688 -62.816406 2.101562 -63.957031 1.34375 -64.625 L 21.09375 -64.625 C 20.332031 -63.957031 19.75 -62.828125 19.34375 -61.234375 C 18.945312 -59.648438 18.75 -58.015625 18.75 -56.328125 L 18.75 -8.296875 C 18.75 -6.648438 18.945312 -5.019531 19.34375 -3.40625 C 19.75 -1.800781 20.332031 -0.664062 21.09375 0 Z M 1.34375 0 "/></g></g><g style="fill:#ffffff;fill-opacity:1;"><g transform="translate(228.588659, 183.656257)"><path style="stroke:none" d="M 1.34375 -64.625 L 18.75 -64.625 L 36.96875 -30.609375 L 36.96875 -56.25 C 36.96875 -57.945312 36.765625 -59.597656 36.359375 -61.203125 C 35.960938 -62.816406 35.382812 -63.957031 34.625 -64.625 L 54.375 -64.625 C 53.613281 -63.957031 53.03125 -62.828125 52.625 -61.234375 C 52.226562 -59.648438 52.03125 -58.015625 52.03125 -56.328125 L 52.03125 -8.296875 C 52.03125 -6.648438 52.226562 -5.019531 52.625 -3.40625 C 53.03125 -1.800781 53.613281 -0.664062 54.375 0 L 36.96875 0 L 18.75 -34.015625 L 18.75 -8.375 C 18.75 -6.71875 18.945312 -5.070312 19.34375 -3.4375 C 19.75 -1.8125 20.332031 -0.664062 21.09375 0 L 1.34375 0 C 2.101562 -0.664062 2.679688 -1.800781 3.078125 -3.40625 C 3.484375 -5.019531 3.6875 -6.648438 3.6875 -8.296875 L 3.6875 -56.328125 C 3.6875 -58.015625 3.484375 -59.648438 3.078125 -61.234375 C 2.679688 -62.828125 2.101562 -63.957031 1.34375 -64.625 Z M 1.34375 -64.625 "/></g></g><g style="fill:#ffffff;fill-opacity:1;"><g transform="translate(292.00176, 183.656257)"><path style="stroke:none" d="M 7.03125 0 C 5.957031 -3.164062 5.070312 -6.144531 4.375 -8.9375 C 3.6875 -11.726562 3.175781 -14.597656 2.84375 -17.546875 C 2.507812 -20.492188 2.34375 -23.773438 2.34375 -27.390625 C 2.34375 -31.046875 2.8125 -34.71875 3.75 -38.40625 C 4.6875 -42.09375 6.082031 -45.5625 7.9375 -48.8125 C 9.789062 -52.070312 12.066406 -54.960938 14.765625 -57.484375 C 17.460938 -60.015625 20.597656 -62.003906 24.171875 -63.453125 C 27.742188 -64.898438 31.695312 -65.625 36.03125 -65.625 C 38.125 -65.625 40.175781 -65.390625 42.1875 -64.921875 C 44.195312 -64.453125 45.984375 -63.769531 47.546875 -62.875 C 49.109375 -61.988281 50.203125 -60.941406 50.828125 -59.734375 L 50.828125 -8.375 C 50.828125 -6.71875 51.023438 -5.070312 51.421875 -3.4375 C 51.828125 -1.8125 52.410156 -0.664062 53.171875 0 L 33.421875 0 C 34.179688 -0.664062 34.757812 -1.800781 35.15625 -3.40625 C 35.5625 -5.019531 35.765625 -6.648438 35.765625 -8.296875 L 35.765625 -19.28125 L 17.8125 -19.28125 C 18.300781 -15.488281 19.191406 -12.019531 20.484375 -8.875 C 21.785156 -5.726562 23.484375 -2.769531 25.578125 0 Z M 17.875 -32.015625 L 35.765625 -32.015625 L 35.828125 -51.828125 C 32.878906 -51.828125 30.351562 -51.222656 28.25 -50.015625 C 26.15625 -48.816406 24.394531 -47.222656 22.96875 -45.234375 C 21.539062 -43.242188 20.425781 -41.097656 19.625 -38.796875 C 18.820312 -36.503906 18.238281 -34.242188 17.875 -32.015625 Z M 17.875 -32.015625 "/></g></g><g style="fill:#ffffff;fill-opacity:1;"><g transform="translate(353.539907, 183.656257)"><path style="stroke:none" d=""/></g></g><g style="fill:#ffffff;fill-opacity:1;"><g transform="translate(381.329405, 183.656257)"><path style="stroke:none" d="M 3.6875 -56.328125 C 3.6875 -58.015625 3.484375 -59.648438 3.078125 -61.234375 C 2.679688 -62.828125 2.101562 -63.957031 1.34375 -64.625 L 32.875 -64.625 C 35.15625 -64.625 37.390625 -64.265625 39.578125 -63.546875 C 41.765625 -62.835938 43.726562 -61.789062 45.46875 -60.40625 C 47.207031 -59.019531 48.59375 -57.332031 49.625 -55.34375 C 50.65625 -53.363281 51.171875 -51.097656 51.171875 -48.546875 C 51.171875 -45.242188 50.265625 -42.332031 48.453125 -39.8125 C 46.640625 -37.289062 44.257812 -35.539062 41.3125 -34.5625 C 42.789062 -34.5625 44.3125 -34.28125 45.875 -33.71875 C 47.4375 -33.15625 48.894531 -32.25 50.25 -31 C 51.613281 -29.75 52.71875 -28.117188 53.5625 -26.109375 C 54.414062 -24.109375 54.84375 -21.703125 54.84375 -18.890625 C 54.84375 -15.628906 53.972656 -12.554688 52.234375 -9.671875 C 50.492188 -6.796875 47.828125 -4.460938 44.234375 -2.671875 C 40.640625 -0.890625 36.097656 0 30.609375 0 L 1.34375 0 C 2.101562 -0.664062 2.679688 -1.800781 3.078125 -3.40625 C 3.484375 -5.019531 3.6875 -6.648438 3.6875 -8.296875 Z M 30.265625 -28 L 18.75 -28 L 18.75 -12.59375 L 30.265625 -12.59375 C 33.566406 -12.59375 35.976562 -13.328125 37.5 -14.796875 C 39.019531 -16.273438 39.78125 -18.109375 39.78125 -20.296875 C 39.78125 -22.523438 39.019531 -24.363281 37.5 -25.8125 C 35.976562 -27.269531 33.566406 -28 30.265625 -28 Z M 18.75 -52.03125 L 18.75 -39.984375 L 29.46875 -39.984375 C 31.300781 -39.984375 32.828125 -40.570312 34.046875 -41.75 C 35.273438 -42.9375 35.890625 -44.351562 35.890625 -46 C 35.890625 -47.65625 35.273438 -49.070312 34.046875 -50.25 C 32.828125 -51.4375 31.300781 -52.03125 29.46875 -52.03125 Z M 18.75 -52.03125 "/></g></g><g style="fill:#ffffff;fill-opacity:1;"><g transform="translate(445.211221, 183.656257)"><path style="stroke:none" d="M 7.03125 0 C 5.957031 -3.164062 5.070312 -6.144531 4.375 -8.9375 C 3.6875 -11.726562 3.175781 -14.597656 2.84375 -17.546875 C 2.507812 -20.492188 2.34375 -23.773438 2.34375 -27.390625 C 2.34375 -31.046875 2.8125 -34.71875 3.75 -38.40625 C 4.6875 -42.09375 6.082031 -45.5625 7.9375 -48.8125 C 9.789062 -52.070312 12.066406 -54.960938 14.765625 -57.484375 C 17.460938 -60.015625 20.597656 -62.003906 24.171875 -63.453125 C 27.742188 -64.898438 31.695312 -65.625 36.03125 -65.625 C 38.125 -65.625 40.175781 -65.390625 42.1875 -64.921875 C 44.195312 -64.453125 45.984375 -63.769531 47.546875 -62.875 C 49.109375 -61.988281 50.203125 -60.941406 50.828125 -59.734375 L 50.828125 -8.375 C 50.828125 -6.71875 51.023438 -5.070312 51.421875 -3.4375 C 51.828125 -1.8125 52.410156 -0.664062 53.171875 0 L 33.421875 0 C 34.179688 -0.664062 34.757812 -1.800781 35.15625 -3.40625 C 35.5625 -5.019531 35.765625 -6.648438 35.765625 -8.296875 L 35.765625 -19.28125 L 17.8125 -19.28125 C 18.300781 -15.488281 19.191406 -12.019531 20.484375 -8.875 C 21.785156 -5.726562 23.484375 -2.769531 25.578125 0 Z M 17.875 -32.015625 L 35.765625 -32.015625 L 35.828125 -51.828125 C 32.878906 -51.828125 30.351562 -51.222656 28.25 -50.015625 C 26.15625 -48.816406 24.394531 -47.222656 22.96875 -45.234375 C 21.539062 -43.242188 20.425781 -41.097656 19.625 -38.796875 C 18.820312 -36.503906 18.238281 -34.242188 17.875 -32.015625 Z M 17.875 -32.015625 "/></g></g><g style="fill:#ffffff;fill-opacity:1;"><g transform="translate(503.401195, 183.656257)"><path style="stroke:none" d="M 0.671875 -64.625 L 24.984375 -64.625 C 24.179688 -63.644531 23.664062 -62.726562 23.4375 -61.875 C 23.21875 -61.03125 23.109375 -60.160156 23.109375 -59.265625 C 23.109375 -57.972656 23.34375 -56.378906 23.8125 -54.484375 C 24.28125 -52.585938 24.867188 -50.585938 25.578125 -48.484375 C 26.296875 -46.390625 27.019531 -44.359375 27.75 -42.390625 C 28.488281 -40.421875 29.148438 -38.722656 29.734375 -37.296875 C 30.265625 -38.722656 30.910156 -40.394531 31.671875 -42.3125 C 32.429688 -44.238281 33.15625 -46.25 33.84375 -48.34375 C 34.539062 -50.445312 35.125 -52.445312 35.59375 -54.34375 C 36.0625 -56.238281 36.296875 -57.835938 36.296875 -59.140625 C 36.296875 -60.023438 36.179688 -60.890625 35.953125 -61.734375 C 35.734375 -62.585938 35.222656 -63.503906 34.421875 -64.484375 L 58.734375 -64.484375 C 57.617188 -63.773438 56.632812 -62.71875 55.78125 -61.3125 C 54.9375 -59.90625 54.066406 -58.304688 53.171875 -56.515625 C 51.429688 -53.078125 49.890625 -49.984375 48.546875 -47.234375 C 47.210938 -44.492188 45.972656 -41.882812 44.828125 -39.40625 C 43.691406 -36.925781 42.519531 -34.378906 41.3125 -31.765625 C 40.113281 -29.160156 38.753906 -26.25 37.234375 -23.03125 L 37.234375 -8.296875 C 37.234375 -6.648438 37.429688 -5.019531 37.828125 -3.40625 C 38.234375 -1.800781 38.816406 -0.664062 39.578125 0 L 19.828125 0 C 20.585938 -0.664062 21.164062 -1.8125 21.5625 -3.4375 C 21.96875 -5.070312 22.171875 -6.71875 22.171875 -8.375 L 22.171875 -23.171875 C 20.648438 -26.390625 19.285156 -29.300781 18.078125 -31.90625 C 16.867188 -34.519531 15.695312 -37.066406 14.5625 -39.546875 C 13.425781 -42.023438 12.1875 -44.632812 10.84375 -47.375 C 9.507812 -50.125 7.972656 -53.21875 6.234375 -56.65625 C 5.335938 -58.4375 4.472656 -60.03125 3.640625 -61.4375 C 2.816406 -62.84375 1.828125 -63.90625 0.671875 -64.625 Z M 0.671875 -64.625 "/></g></g></g></g></g></svg>