<svg xmlns="http://www.w3.org/2000/svg" xmlns:xlink="http://www.w3.org/1999/xlink" width="1920" zoomAndPan="magnify" viewBox="0 0 1440 809.999993" height="1080" preserveAspectRatio="xMidYMid meet" version="1.2"><defs/><g id="e9db123edd"><g style="fill:#ffffff;fill-opacity:1;"><g transform="translate(633.545374, 273.808439)"><path style="stroke:none" d="M -5.765625 -122.25 L -5.765625 -122.96875 C -1.921875 -123.257812 2.253906 -124.078125 6.765625 -125.421875 C 11.273438 -126.765625 15.738281 -128.375 20.15625 -130.25 C 24.570312 -132.125 28.601562 -134.019531 32.25 -135.9375 C 35.90625 -137.851562 38.738281 -139.582031 40.75 -141.125 L 40.75 -18 C 40.75 -14.445312 41.179688 -10.914062 42.046875 -7.40625 C 42.910156 -3.90625 44.160156 -1.4375 45.796875 0 L 3.3125 0 C 4.945312 -1.4375 6.195312 -3.882812 7.0625 -7.34375 C 7.925781 -10.800781 8.359375 -14.304688 8.359375 -17.859375 L 8.359375 -101.65625 C 8.359375 -102.71875 8.257812 -104.351562 8.0625 -106.5625 C 7.875 -108.769531 7.347656 -111.070312 6.484375 -113.46875 C 5.617188 -115.875 4.222656 -117.9375 2.296875 -119.65625 C 0.378906 -121.382812 -2.304688 -122.25 -5.765625 -122.25 Z M -5.765625 -122.25 "/></g></g><g style="fill:#ffffff;fill-opacity:1;"><g transform="translate(682.217346, 273.808439)"><path style="stroke:none" d="M 61.921875 2.15625 C 53.953125 2.15625 46.488281 0.40625 39.53125 -3.09375 C 32.570312 -6.601562 26.453125 -11.570312 21.171875 -18 C 15.890625 -24.425781 11.757812 -32.007812 8.78125 -40.75 C 5.800781 -49.488281 4.3125 -59.085938 4.3125 -69.546875 C 4.3125 -80.015625 5.800781 -89.613281 8.78125 -98.34375 C 11.757812 -107.082031 15.890625 -114.644531 21.171875 -121.03125 C 26.453125 -127.414062 32.570312 -132.359375 39.53125 -135.859375 C 46.488281 -139.367188 53.953125 -141.125 61.921875 -141.125 C 69.890625 -141.125 77.328125 -139.367188 84.234375 -135.859375 C 91.148438 -132.359375 97.25 -127.414062 102.53125 -121.03125 C 107.8125 -114.644531 111.9375 -107.082031 114.90625 -98.34375 C 117.882812 -89.613281 119.375 -80.015625 119.375 -69.546875 C 119.375 -59.085938 117.882812 -49.488281 114.90625 -40.75 C 111.9375 -32.007812 107.8125 -24.425781 102.53125 -18 C 97.25 -11.570312 91.148438 -6.601562 84.234375 -3.09375 C 77.328125 0.40625 69.890625 2.15625 61.921875 2.15625 Z M 37.296875 -69.546875 C 37.296875 -61.003906 38.398438 -53.375 40.609375 -46.65625 C 42.816406 -39.9375 45.789062 -34.679688 49.53125 -30.890625 C 53.28125 -27.097656 57.410156 -25.203125 61.921875 -25.203125 C 66.429688 -25.203125 70.535156 -27.097656 74.234375 -30.890625 C 77.929688 -34.679688 80.882812 -39.9375 83.09375 -46.65625 C 85.300781 -53.375 86.40625 -61.003906 86.40625 -69.546875 C 86.40625 -78.097656 85.300781 -85.679688 83.09375 -92.296875 C 80.882812 -98.921875 77.929688 -104.128906 74.234375 -107.921875 C 70.535156 -111.710938 66.429688 -113.609375 61.921875 -113.609375 C 57.410156 -113.609375 53.28125 -111.710938 49.53125 -107.921875 C 45.789062 -104.128906 42.816406 -98.921875 40.609375 -92.296875 C 38.398438 -85.679688 37.296875 -78.097656 37.296875 -69.546875 Z M 37.296875 -69.546875 "/></g></g><g style="fill:#ffffff;fill-opacity:1;"><g transform="translate(805.916463, 273.808439)"><path style="stroke:none" d=""/></g></g><g style="fill:#ffffff;fill-opacity:1;"><g transform="translate(358.968855, 462.506277)"><path style="stroke:none" d="M 45.359375 0 L 2.875 0 C 4.507812 -1.4375 5.757812 -3.882812 6.625 -7.34375 C 7.488281 -10.800781 7.921875 -14.304688 7.921875 -17.859375 L 7.921875 -121.109375 C 7.921875 -124.753906 7.488281 -128.28125 6.625 -131.6875 C 5.757812 -135.09375 4.507812 -137.515625 2.875 -138.953125 L 40.3125 -138.953125 L 72.28125 -65.65625 L 104.109375 -138.953125 L 141.546875 -138.953125 C 139.921875 -137.515625 138.675781 -135.09375 137.8125 -131.6875 C 136.945312 -128.28125 136.515625 -124.753906 136.515625 -121.109375 L 136.515625 -17.859375 C 136.515625 -14.304688 136.945312 -10.800781 137.8125 -7.34375 C 138.675781 -3.882812 139.921875 -1.4375 141.546875 0 L 99.078125 0 C 100.703125 -1.4375 101.945312 -3.90625 102.8125 -7.40625 C 103.675781 -10.914062 104.109375 -14.445312 104.109375 -18 L 104.109375 -80.203125 L 72.28125 -4.03125 L 40.3125 -80.640625 L 40.3125 -18 C 40.3125 -14.445312 40.742188 -10.914062 41.609375 -7.40625 C 42.472656 -3.90625 43.722656 -1.4375 45.359375 0 Z M 45.359375 0 "/></g></g><g style="fill:#ffffff;fill-opacity:1;"><g transform="translate(515.640772, 462.506277)"><path style="stroke:none" d="M 15.125 0 C 12.8125 -6.8125 10.910156 -13.21875 9.421875 -19.21875 C 7.941406 -25.21875 6.84375 -31.382812 6.125 -37.71875 C 5.40625 -44.0625 5.046875 -51.117188 5.046875 -58.890625 C 5.046875 -66.765625 6.050781 -74.660156 8.0625 -82.578125 C 10.082031 -90.503906 13.082031 -97.96875 17.0625 -104.96875 C 21.050781 -111.976562 25.945312 -118.195312 31.75 -123.625 C 37.5625 -129.050781 44.304688 -133.320312 51.984375 -136.4375 C 59.660156 -139.5625 68.15625 -141.125 77.46875 -141.125 C 81.976562 -141.125 86.394531 -140.617188 90.71875 -139.609375 C 95.039062 -138.597656 98.878906 -137.132812 102.234375 -135.21875 C 105.597656 -133.300781 107.953125 -131.046875 109.296875 -128.453125 L 109.296875 -18 C 109.296875 -14.445312 109.726562 -10.914062 110.59375 -7.40625 C 111.457031 -3.90625 112.707031 -1.4375 114.34375 0 L 71.859375 0 C 73.484375 -1.4375 74.726562 -3.882812 75.59375 -7.34375 C 76.457031 -10.800781 76.890625 -14.304688 76.890625 -17.859375 L 76.890625 -41.46875 L 38.296875 -41.46875 C 39.359375 -33.3125 41.28125 -25.847656 44.0625 -19.078125 C 46.84375 -12.304688 50.492188 -5.945312 55.015625 0 Z M 38.453125 -68.828125 L 76.890625 -68.828125 L 77.046875 -111.453125 C 70.703125 -111.453125 65.273438 -110.15625 60.765625 -107.5625 C 56.253906 -104.976562 52.460938 -101.546875 49.390625 -97.265625 C 46.316406 -92.992188 43.914062 -88.382812 42.1875 -83.4375 C 40.457031 -78.5 39.210938 -73.628906 38.453125 -68.828125 Z M 38.453125 -68.828125 "/></g></g><g style="fill:#ffffff;fill-opacity:1;"><g transform="translate(643.656713, 462.506277)"><path style="stroke:none" d="M 7.921875 -120.953125 C 7.921875 -124.609375 7.488281 -128.160156 6.625 -131.609375 C 5.757812 -135.066406 4.507812 -137.515625 2.875 -138.953125 L 63.078125 -138.953125 C 68.734375 -138.953125 74.414062 -138.015625 80.125 -136.140625 C 85.84375 -134.273438 91.050781 -131.46875 95.75 -127.71875 C 100.457031 -123.976562 104.226562 -119.347656 107.0625 -113.828125 C 109.894531 -108.304688 111.3125 -101.898438 111.3125 -94.609375 C 111.3125 -84.617188 108.597656 -76.3125 103.171875 -69.6875 C 97.753906 -63.070312 90.769531 -58.46875 82.21875 -55.875 L 90.4375 -34.125 C 94.46875 -23.46875 98.207031 -15.453125 101.65625 -10.078125 C 105.113281 -4.703125 108.1875 -1.34375 110.875 0 L 63.359375 0 C 64.410156 -1.25 65.007812 -3.023438 65.15625 -5.328125 C 65.300781 -7.628906 64.703125 -10.414062 63.359375 -13.6875 L 40.3125 -77.609375 L 40.3125 -17.859375 C 40.3125 -14.304688 40.742188 -10.800781 41.609375 -7.34375 C 42.472656 -3.882812 43.722656 -1.4375 45.359375 0 L 2.875 0 C 4.507812 -1.4375 5.757812 -3.90625 6.625 -7.40625 C 7.488281 -10.914062 7.921875 -14.445312 7.921875 -18 Z M 40.3125 -77.609375 L 60.90625 -77.609375 C 65.039062 -77.609375 68.453125 -78.472656 71.140625 -80.203125 C 73.828125 -81.929688 75.84375 -84.113281 77.1875 -86.75 C 78.53125 -89.394531 79.203125 -92.015625 79.203125 -94.609375 C 79.203125 -99.117188 77.6875 -103.078125 74.65625 -106.484375 C 71.632812 -109.890625 67.148438 -111.59375 61.203125 -111.59375 L 40.3125 -111.59375 Z M 40.3125 -77.609375 "/></g></g><g style="fill:#ffffff;fill-opacity:1;"><g transform="translate(770.088676, 462.506277)"><path style="stroke:none" d="M 2.875 0 C 4.507812 -1.4375 5.757812 -3.90625 6.625 -7.40625 C 7.488281 -10.914062 7.921875 -14.445312 7.921875 -18 L 7.921875 -120.953125 C 7.921875 -124.609375 7.488281 -128.160156 6.625 -131.609375 C 5.757812 -135.066406 4.507812 -137.515625 2.875 -138.953125 L 45.359375 -138.953125 C 43.722656 -137.515625 42.472656 -135.09375 41.609375 -131.6875 C 40.742188 -128.28125 40.3125 -124.753906 40.3125 -121.109375 L 40.3125 -17.859375 C 40.3125 -14.304688 40.742188 -10.800781 41.609375 -7.34375 C 42.472656 -3.882812 43.722656 -1.4375 45.359375 0 Z M 2.875 0 "/></g></g><g style="fill:#ffffff;fill-opacity:1;"><g transform="translate(830.568639, 462.506277)"><path style="stroke:none" d="M 2.875 -138.953125 L 40.3125 -138.953125 L 79.484375 -65.8125 L 79.484375 -120.953125 C 79.484375 -124.609375 79.050781 -128.160156 78.1875 -131.609375 C 77.320312 -135.066406 76.078125 -137.515625 74.453125 -138.953125 L 116.921875 -138.953125 C 115.296875 -137.515625 114.050781 -135.09375 113.1875 -131.6875 C 112.320312 -128.28125 111.890625 -124.753906 111.890625 -121.109375 L 111.890625 -17.859375 C 111.890625 -14.304688 112.320312 -10.800781 113.1875 -7.34375 C 114.050781 -3.882812 115.296875 -1.4375 116.921875 0 L 79.484375 0 L 40.3125 -73.15625 L 40.3125 -18 C 40.3125 -14.445312 40.742188 -10.914062 41.609375 -7.40625 C 42.472656 -3.90625 43.722656 -1.4375 45.359375 0 L 2.875 0 C 4.507812 -1.4375 5.757812 -3.882812 6.625 -7.34375 C 7.488281 -10.800781 7.921875 -14.304688 7.921875 -17.859375 L 7.921875 -121.109375 C 7.921875 -124.753906 7.488281 -128.28125 6.625 -131.6875 C 5.757812 -135.09375 4.507812 -137.515625 2.875 -138.953125 Z M 2.875 -138.953125 "/></g></g><g style="fill:#ffffff;fill-opacity:1;"><g transform="translate(962.616557, 462.506277)"><path style="stroke:none" d="M 15.125 0 C 12.8125 -6.8125 10.910156 -13.21875 9.421875 -19.21875 C 7.941406 -25.21875 6.84375 -31.382812 6.125 -37.71875 C 5.40625 -44.0625 5.046875 -51.117188 5.046875 -58.890625 C 5.046875 -66.765625 6.050781 -74.660156 8.0625 -82.578125 C 10.082031 -90.503906 13.082031 -97.96875 17.0625 -104.96875 C 21.050781 -111.976562 25.945312 -118.195312 31.75 -123.625 C 37.5625 -129.050781 44.304688 -133.320312 51.984375 -136.4375 C 59.660156 -139.5625 68.15625 -141.125 77.46875 -141.125 C 81.976562 -141.125 86.394531 -140.617188 90.71875 -139.609375 C 95.039062 -138.597656 98.878906 -137.132812 102.234375 -135.21875 C 105.597656 -133.300781 107.953125 -131.046875 109.296875 -128.453125 L 109.296875 -18 C 109.296875 -14.445312 109.726562 -10.914062 110.59375 -7.40625 C 111.457031 -3.90625 112.707031 -1.4375 114.34375 0 L 71.859375 0 C 73.484375 -1.4375 74.726562 -3.882812 75.59375 -7.34375 C 76.457031 -10.800781 76.890625 -14.304688 76.890625 -17.859375 L 76.890625 -41.46875 L 38.296875 -41.46875 C 39.359375 -33.3125 41.28125 -25.847656 44.0625 -19.078125 C 46.84375 -12.304688 50.492188 -5.945312 55.015625 0 Z M 38.453125 -68.828125 L 76.890625 -68.828125 L 77.046875 -111.453125 C 70.703125 -111.453125 65.273438 -110.15625 60.765625 -107.5625 C 56.253906 -104.976562 52.460938 -101.546875 49.390625 -97.265625 C 46.316406 -92.992188 43.914062 -88.382812 42.1875 -83.4375 C 40.457031 -78.5 39.210938 -73.628906 38.453125 -68.828125 Z M 38.453125 -68.828125 "/></g></g><g style="fill:#ffffff;fill-opacity:1;"><g transform="translate(1090.640693, 462.506277)"><path style="stroke:none" d=""/></g></g><g style="fill:#ffffff;fill-opacity:1;"><g transform="translate(529.190185, 651.204131)"><path style="stroke:none" d="M 7.921875 -121.109375 C 7.921875 -124.753906 7.488281 -128.28125 6.625 -131.6875 C 5.757812 -135.09375 4.507812 -137.515625 2.875 -138.953125 L 70.703125 -138.953125 C 75.597656 -138.953125 80.394531 -138.1875 85.09375 -136.65625 C 89.800781 -135.125 94.023438 -132.867188 97.765625 -129.890625 C 101.515625 -126.910156 104.492188 -123.285156 106.703125 -119.015625 C 108.910156 -114.742188 110.015625 -109.875 110.015625 -104.40625 C 110.015625 -97.300781 108.070312 -91.035156 104.1875 -85.609375 C 100.300781 -80.179688 95.1875 -76.410156 88.84375 -74.296875 C 92.007812 -74.296875 95.273438 -73.695312 98.640625 -72.5 C 102.003906 -71.300781 105.148438 -69.359375 108.078125 -66.671875 C 111.003906 -63.984375 113.378906 -60.476562 115.203125 -56.15625 C 117.023438 -51.84375 117.9375 -46.660156 117.9375 -40.609375 C 117.9375 -33.597656 116.0625 -26.992188 112.3125 -20.796875 C 108.570312 -14.609375 102.835938 -9.59375 95.109375 -5.75 C 87.378906 -1.914062 77.613281 0 65.8125 0 L 2.875 0 C 4.507812 -1.4375 5.757812 -3.882812 6.625 -7.34375 C 7.488281 -10.800781 7.921875 -14.304688 7.921875 -17.859375 Z M 65.09375 -60.1875 L 40.3125 -60.1875 L 40.3125 -27.078125 L 65.09375 -27.078125 C 72.195312 -27.078125 77.378906 -28.660156 80.640625 -31.828125 C 83.898438 -34.992188 85.53125 -38.925781 85.53125 -43.625 C 85.53125 -48.425781 83.898438 -52.382812 80.640625 -55.5 C 77.378906 -58.625 72.195312 -60.1875 65.09375 -60.1875 Z M 40.3125 -111.890625 L 40.3125 -85.96875 L 63.359375 -85.96875 C 67.296875 -85.96875 70.582031 -87.238281 73.21875 -89.78125 C 75.863281 -92.320312 77.1875 -95.367188 77.1875 -98.921875 C 77.1875 -102.472656 75.863281 -105.519531 73.21875 -108.0625 C 70.582031 -110.613281 67.296875 -111.890625 63.359375 -111.890625 Z M 40.3125 -111.890625 "/></g></g><g style="fill:#ffffff;fill-opacity:1;"><g transform="translate(662.24611, 651.204131)"><path style="stroke:none" d="M 15.125 0 C 12.8125 -6.8125 10.910156 -13.21875 9.421875 -19.21875 C 7.941406 -25.21875 6.84375 -31.382812 6.125 -37.71875 C 5.40625 -44.0625 5.046875 -51.117188 5.046875 -58.890625 C 5.046875 -66.765625 6.050781 -74.660156 8.0625 -82.578125 C 10.082031 -90.503906 13.082031 -97.96875 17.0625 -104.96875 C 21.050781 -111.976562 25.945312 -118.195312 31.75 -123.625 C 37.5625 -129.050781 44.304688 -133.320312 51.984375 -136.4375 C 59.660156 -139.5625 68.15625 -141.125 77.46875 -141.125 C 81.976562 -141.125 86.394531 -140.617188 90.71875 -139.609375 C 95.039062 -138.597656 98.878906 -137.132812 102.234375 -135.21875 C 105.597656 -133.300781 107.953125 -131.046875 109.296875 -128.453125 L 109.296875 -18 C 109.296875 -14.445312 109.726562 -10.914062 110.59375 -7.40625 C 111.457031 -3.90625 112.707031 -1.4375 114.34375 0 L 71.859375 0 C 73.484375 -1.4375 74.726562 -3.882812 75.59375 -7.34375 C 76.457031 -10.800781 76.890625 -14.304688 76.890625 -17.859375 L 76.890625 -41.46875 L 38.296875 -41.46875 C 39.359375 -33.3125 41.28125 -25.847656 44.0625 -19.078125 C 46.84375 -12.304688 50.492188 -5.945312 55.015625 0 Z M 38.453125 -68.828125 L 76.890625 -68.828125 L 77.046875 -111.453125 C 70.703125 -111.453125 65.273438 -110.15625 60.765625 -107.5625 C 56.253906 -104.976562 52.460938 -101.546875 49.390625 -97.265625 C 46.316406 -92.992188 43.914062 -88.382812 42.1875 -83.4375 C 40.457031 -78.5 39.210938 -73.628906 38.453125 -68.828125 Z M 38.453125 -68.828125 "/></g></g><g style="fill:#ffffff;fill-opacity:1;"><g transform="translate(783.062056, 651.204131)"><path style="stroke:none" d="M 1.4375 -138.953125 L 53.71875 -138.953125 C 51.988281 -136.847656 50.882812 -134.878906 50.40625 -133.046875 C 49.925781 -131.222656 49.6875 -129.351562 49.6875 -127.4375 C 49.6875 -124.65625 50.1875 -121.222656 51.1875 -117.140625 C 52.195312 -113.066406 53.46875 -108.769531 55 -104.25 C 56.539062 -99.738281 58.101562 -95.367188 59.6875 -91.140625 C 61.269531 -86.921875 62.6875 -83.273438 63.9375 -80.203125 C 65.082031 -83.273438 66.472656 -86.875 68.109375 -91 C 69.742188 -95.132812 71.304688 -99.457031 72.796875 -103.96875 C 74.285156 -108.476562 75.53125 -112.769531 76.53125 -116.84375 C 77.539062 -120.925781 78.046875 -124.363281 78.046875 -127.15625 C 78.046875 -129.070312 77.804688 -130.941406 77.328125 -132.765625 C 76.847656 -134.585938 75.742188 -136.554688 74.015625 -138.671875 L 126.28125 -138.671875 C 123.882812 -137.140625 121.773438 -134.859375 119.953125 -131.828125 C 118.128906 -128.804688 116.257812 -125.375 114.34375 -121.53125 C 110.59375 -114.144531 107.273438 -107.5 104.390625 -101.59375 C 101.515625 -95.6875 98.851562 -90.066406 96.40625 -84.734375 C 93.957031 -79.410156 91.4375 -73.941406 88.84375 -68.328125 C 86.25 -62.710938 83.320312 -56.445312 80.0625 -49.53125 L 80.0625 -17.859375 C 80.0625 -14.304688 80.492188 -10.800781 81.359375 -7.34375 C 82.222656 -3.882812 83.472656 -1.4375 85.109375 0 L 42.625 0 C 44.257812 -1.4375 45.503906 -3.90625 46.359375 -7.40625 C 47.222656 -10.914062 47.65625 -14.445312 47.65625 -18 L 47.65625 -49.828125 C 44.394531 -56.734375 41.46875 -62.992188 38.875 -68.609375 C 36.28125 -74.234375 33.757812 -79.707031 31.3125 -85.03125 C 28.863281 -90.363281 26.203125 -95.976562 23.328125 -101.875 C 20.453125 -107.78125 17.140625 -114.429688 13.390625 -121.828125 C 11.472656 -125.660156 9.625 -129.085938 7.84375 -132.109375 C 6.070312 -135.140625 3.9375 -137.421875 1.4375 -138.953125 Z M 1.4375 -138.953125 "/></g></g></g></svg>