<svg xmlns="http://www.w3.org/2000/svg" xmlns:xlink="http://www.w3.org/1999/xlink" width="3840" zoomAndPan="magnify" viewBox="0 0 2880 1439.999935" height="1920" preserveAspectRatio="xMidYMid meet" version="1.2"><defs><clipPath id="8325058be9"><rect x="0" width="1096" y="0" height="522"/></clipPath></defs><g id="45e3cb5657"><g style="fill:#ffffff;fill-opacity:1;"><g transform="translate(1196.219601, 466.620225)"><path style="stroke:none" d="M -16 -339.59375 L -16 -341.59375 C -5.332031 -342.394531 6.265625 -344.660156 18.796875 -348.390625 C 31.328125 -352.128906 43.726562 -356.597656 56 -361.796875 C 68.269531 -366.992188 79.46875 -372.257812 89.59375 -377.59375 C 99.726562 -382.925781 107.597656 -387.726562 113.203125 -392 L 113.203125 -50 C 113.203125 -40.132812 114.398438 -30.332031 116.796875 -20.59375 C 119.203125 -10.863281 122.671875 -4 127.203125 0 L 9.203125 0 C 13.734375 -4 17.195312 -10.796875 19.59375 -20.390625 C 22 -29.992188 23.203125 -39.726562 23.203125 -49.59375 L 23.203125 -282.40625 C 23.203125 -285.332031 22.929688 -289.863281 22.390625 -296 C 21.859375 -302.132812 20.394531 -308.535156 18 -315.203125 C 15.601562 -321.867188 11.738281 -327.597656 6.40625 -332.390625 C 1.070312 -337.191406 -6.394531 -339.59375 -16 -339.59375 Z M -16 -339.59375 "/></g></g><g style="fill:#ffffff;fill-opacity:1;"><g transform="translate(1331.418489, 466.620225)"><path style="stroke:none" d="M 172 6 C 149.863281 6 129.128906 1.132812 109.796875 -8.59375 C 90.460938 -18.332031 73.460938 -32.132812 58.796875 -50 C 44.128906 -67.863281 32.660156 -88.925781 24.390625 -113.1875 C 16.128906 -137.457031 12 -164.128906 12 -193.203125 C 12 -222.265625 16.128906 -248.925781 24.390625 -273.1875 C 32.660156 -297.457031 44.128906 -318.457031 58.796875 -336.1875 C 73.460938 -353.925781 90.460938 -367.660156 109.796875 -377.390625 C 129.128906 -387.128906 149.863281 -392 172 -392 C 194.132812 -392 214.800781 -387.128906 234 -377.390625 C 253.195312 -367.660156 270.128906 -353.925781 284.796875 -336.1875 C 299.460938 -318.457031 310.925781 -297.457031 319.1875 -273.1875 C 327.457031 -248.925781 331.59375 -222.265625 331.59375 -193.203125 C 331.59375 -164.128906 327.457031 -137.457031 319.1875 -113.1875 C 310.925781 -88.925781 299.460938 -67.863281 284.796875 -50 C 270.128906 -32.132812 253.195312 -18.332031 234 -8.59375 C 214.800781 1.132812 194.132812 6 172 6 Z M 103.59375 -193.203125 C 103.59375 -169.460938 106.660156 -148.257812 112.796875 -129.59375 C 118.929688 -110.925781 127.195312 -96.328125 137.59375 -85.796875 C 148 -75.265625 159.46875 -70 172 -70 C 184.53125 -70 195.925781 -75.265625 206.1875 -85.796875 C 216.457031 -96.328125 224.660156 -110.925781 230.796875 -129.59375 C 236.929688 -148.257812 240 -169.460938 240 -193.203125 C 240 -216.929688 236.929688 -237.992188 230.796875 -256.390625 C 224.660156 -274.796875 216.457031 -289.265625 206.1875 -299.796875 C 195.925781 -310.328125 184.53125 -315.59375 172 -315.59375 C 159.46875 -315.59375 148 -310.328125 137.59375 -299.796875 C 127.195312 -289.265625 118.929688 -274.796875 112.796875 -256.390625 C 106.660156 -237.992188 103.59375 -216.929688 103.59375 -193.203125 Z M 103.59375 -193.203125 "/></g></g><g style="fill:#ffffff;fill-opacity:1;"><g transform="translate(1675.024247, 466.620225)"><path style="stroke:none" d=""/></g></g><g style="fill:#ffffff;fill-opacity:1;"><g transform="translate(433.972203, 897.245182)"><path style="stroke:none" d="M 126 0 L 8 0 C 12.53125 -4 15.992188 -10.796875 18.390625 -20.390625 C 20.796875 -29.992188 22 -39.726562 22 -49.59375 L 22 -336.40625 C 22 -346.53125 20.796875 -356.328125 18.390625 -365.796875 C 15.992188 -375.265625 12.53125 -382 8 -386 L 112 -386 L 200.796875 -182.40625 L 289.203125 -386 L 393.203125 -386 C 388.671875 -382 385.203125 -375.265625 382.796875 -365.796875 C 380.398438 -356.328125 379.203125 -346.53125 379.203125 -336.40625 L 379.203125 -49.59375 C 379.203125 -39.726562 380.398438 -29.992188 382.796875 -20.390625 C 385.203125 -10.796875 388.671875 -4 393.203125 0 L 275.203125 0 C 279.734375 -4 283.195312 -10.863281 285.59375 -20.59375 C 288 -30.332031 289.203125 -40.132812 289.203125 -50 L 289.203125 -222.796875 L 200.796875 -11.203125 L 112 -224 L 112 -50 C 112 -40.132812 113.195312 -30.332031 115.59375 -20.59375 C 118 -10.863281 121.46875 -4 126 0 Z M 126 0 "/></g></g><g style="fill:#ffffff;fill-opacity:1;"><g transform="translate(869.169003, 897.245182)"><path style="stroke:none" d="M 42 0 C 35.601562 -18.9375 30.335938 -36.738281 26.203125 -53.40625 C 22.066406 -70.070312 19 -87.203125 17 -104.796875 C 15 -122.398438 14 -142 14 -163.59375 C 14 -185.46875 16.796875 -207.40625 22.390625 -229.40625 C 27.992188 -251.40625 36.328125 -272.132812 47.390625 -291.59375 C 58.460938 -311.0625 72.066406 -328.328125 88.203125 -343.390625 C 104.335938 -358.460938 123.070312 -370.332031 144.40625 -379 C 165.738281 -387.664062 189.335938 -392 215.203125 -392 C 227.734375 -392 240 -390.597656 252 -387.796875 C 264 -384.992188 274.664062 -380.925781 284 -375.59375 C 293.332031 -370.257812 299.863281 -363.992188 303.59375 -356.796875 L 303.59375 -50 C 303.59375 -40.132812 304.789062 -30.332031 307.1875 -20.59375 C 309.59375 -10.863281 313.0625 -4 317.59375 0 L 199.59375 0 C 204.132812 -4 207.601562 -10.796875 210 -20.390625 C 212.394531 -29.992188 213.59375 -39.726562 213.59375 -49.59375 L 213.59375 -115.203125 L 106.40625 -115.203125 C 109.332031 -92.535156 114.660156 -71.800781 122.390625 -53 C 130.128906 -34.195312 140.265625 -16.53125 152.796875 0 Z M 106.796875 -191.203125 L 213.59375 -191.203125 L 214 -309.59375 C 196.394531 -309.59375 181.328125 -305.992188 168.796875 -298.796875 C 156.265625 -291.597656 145.734375 -282.066406 137.203125 -270.203125 C 128.671875 -258.335938 122.003906 -245.535156 117.203125 -231.796875 C 112.398438 -218.066406 108.929688 -204.535156 106.796875 -191.203125 Z M 106.796875 -191.203125 "/></g></g><g style="fill:#ffffff;fill-opacity:1;"><g transform="translate(1224.766382, 897.245182)"><path style="stroke:none" d="M 22 -336 C 22 -346.132812 20.796875 -356 18.390625 -365.59375 C 15.992188 -375.195312 12.53125 -382 8 -386 L 175.203125 -386 C 190.929688 -386 206.726562 -383.398438 222.59375 -378.203125 C 238.46875 -373.003906 252.9375 -365.203125 266 -354.796875 C 279.0625 -344.398438 289.523438 -331.535156 297.390625 -316.203125 C 305.265625 -300.867188 309.203125 -283.066406 309.203125 -262.796875 C 309.203125 -235.066406 301.664062 -212 286.59375 -193.59375 C 271.53125 -175.195312 252.132812 -162.398438 228.40625 -155.203125 L 251.203125 -94.796875 C 262.398438 -65.203125 272.796875 -42.9375 282.390625 -28 C 291.992188 -13.0625 300.53125 -3.726562 308 0 L 176 0 C 178.9375 -3.46875 180.601562 -8.398438 181 -14.796875 C 181.394531 -21.203125 179.726562 -28.9375 176 -38 L 112 -215.59375 L 112 -49.59375 C 112 -39.726562 113.195312 -29.992188 115.59375 -20.390625 C 118 -10.796875 121.46875 -4 126 0 L 8 0 C 12.53125 -4 15.992188 -10.863281 18.390625 -20.59375 C 20.796875 -30.332031 22 -40.132812 22 -50 Z M 112 -215.59375 L 169.203125 -215.59375 C 180.671875 -215.59375 190.132812 -217.992188 197.59375 -222.796875 C 205.0625 -227.597656 210.660156 -233.664062 214.390625 -241 C 218.128906 -248.332031 220 -255.597656 220 -262.796875 C 220 -275.328125 215.796875 -286.328125 207.390625 -295.796875 C 198.992188 -305.265625 186.53125 -310 170 -310 L 112 -310 Z M 112 -215.59375 "/></g></g><g style="fill:#ffffff;fill-opacity:1;"><g transform="translate(1575.963834, 897.245182)"><path style="stroke:none" d="M 8 0 C 12.53125 -4 15.992188 -10.863281 18.390625 -20.59375 C 20.796875 -30.332031 22 -40.132812 22 -50 L 22 -336 C 22 -346.132812 20.796875 -356 18.390625 -365.59375 C 15.992188 -375.195312 12.53125 -382 8 -386 L 126 -386 C 121.46875 -382 118 -375.265625 115.59375 -365.796875 C 113.195312 -356.328125 112 -346.53125 112 -336.40625 L 112 -49.59375 C 112 -39.726562 113.195312 -29.992188 115.59375 -20.390625 C 118 -10.796875 121.46875 -4 126 0 Z M 8 0 "/></g></g><g style="fill:#ffffff;fill-opacity:1;"><g transform="translate(1743.962627, 897.245182)"><path style="stroke:none" d="M 8 -386 L 112 -386 L 220.796875 -182.796875 L 220.796875 -336 C 220.796875 -346.132812 219.59375 -356 217.1875 -365.59375 C 214.789062 -375.195312 211.328125 -382 206.796875 -386 L 324.796875 -386 C 320.265625 -382 316.796875 -375.265625 314.390625 -365.796875 C 311.992188 -356.328125 310.796875 -346.53125 310.796875 -336.40625 L 310.796875 -49.59375 C 310.796875 -39.726562 311.992188 -29.992188 314.390625 -20.390625 C 316.796875 -10.796875 320.265625 -4 324.796875 0 L 220.796875 0 L 112 -203.203125 L 112 -50 C 112 -40.132812 113.195312 -30.332031 115.59375 -20.59375 C 118 -10.863281 121.46875 -4 126 0 L 8 0 C 12.53125 -4 15.992188 -10.796875 18.390625 -20.390625 C 20.796875 -29.992188 22 -39.726562 22 -49.59375 L 22 -336.40625 C 22 -346.53125 20.796875 -356.328125 18.390625 -365.796875 C 15.992188 -375.265625 12.53125 -382 8 -386 Z M 8 -386 "/></g></g><g style="fill:#ffffff;fill-opacity:1;"><g transform="translate(2110.760018, 897.245182)"><path style="stroke:none" d="M 42 0 C 35.601562 -18.9375 30.335938 -36.738281 26.203125 -53.40625 C 22.066406 -70.070312 19 -87.203125 17 -104.796875 C 15 -122.398438 14 -142 14 -163.59375 C 14 -185.46875 16.796875 -207.40625 22.390625 -229.40625 C 27.992188 -251.40625 36.328125 -272.132812 47.390625 -291.59375 C 58.460938 -311.0625 72.066406 -328.328125 88.203125 -343.390625 C 104.335938 -358.460938 123.070312 -370.332031 144.40625 -379 C 165.738281 -387.664062 189.335938 -392 215.203125 -392 C 227.734375 -392 240 -390.597656 252 -387.796875 C 264 -384.992188 274.664062 -380.925781 284 -375.59375 C 293.332031 -370.257812 299.863281 -363.992188 303.59375 -356.796875 L 303.59375 -50 C 303.59375 -40.132812 304.789062 -30.332031 307.1875 -20.59375 C 309.59375 -10.863281 313.0625 -4 317.59375 0 L 199.59375 0 C 204.132812 -4 207.601562 -10.796875 210 -20.390625 C 212.394531 -29.992188 213.59375 -39.726562 213.59375 -49.59375 L 213.59375 -115.203125 L 106.40625 -115.203125 C 109.332031 -92.535156 114.660156 -71.800781 122.390625 -53 C 130.128906 -34.195312 140.265625 -16.53125 152.796875 0 Z M 106.796875 -191.203125 L 213.59375 -191.203125 L 214 -309.59375 C 196.394531 -309.59375 181.328125 -305.992188 168.796875 -298.796875 C 156.265625 -291.597656 145.734375 -282.066406 137.203125 -270.203125 C 128.671875 -258.335938 122.003906 -245.535156 117.203125 -231.796875 C 112.398438 -218.066406 108.929688 -204.535156 106.796875 -191.203125 Z M 106.796875 -191.203125 "/></g></g><g style="fill:#ffffff;fill-opacity:1;"><g transform="translate(2466.366577, 897.245182)"><path style="stroke:none" d=""/></g></g><g transform="matrix(1,0,0,1,909,918)"><g clip-path="url(#8325058be9)"><g style="fill:#ffffff;fill-opacity:1;"><g transform="translate(1.344033, 411.464887)"><path style="stroke:none" d="M 21.984375 -336.15625 C 21.984375 -346.289062 20.785156 -356.085938 18.390625 -365.546875 C 15.992188 -375.003906 12.53125 -381.734375 8 -385.734375 L 196.265625 -385.734375 C 209.847656 -385.734375 223.164062 -383.597656 236.21875 -379.328125 C 249.28125 -375.066406 261.007812 -368.804688 271.40625 -360.546875 C 281.800781 -352.285156 290.0625 -342.222656 296.1875 -330.359375 C 302.320312 -318.503906 305.390625 -304.984375 305.390625 -289.796875 C 305.390625 -270.078125 299.992188 -252.6875 289.203125 -237.625 C 278.410156 -222.570312 264.21875 -212.113281 246.625 -206.25 C 255.414062 -206.25 264.472656 -204.582031 273.796875 -201.25 C 283.128906 -197.925781 291.859375 -192.53125 299.984375 -185.0625 C 308.117188 -177.601562 314.71875 -167.878906 319.78125 -155.890625 C 324.84375 -143.898438 327.375 -129.507812 327.375 -112.71875 C 327.375 -93.269531 322.175781 -74.953125 311.78125 -57.765625 C 301.382812 -40.578125 285.460938 -26.648438 264.015625 -15.984375 C 242.566406 -5.328125 215.453125 0 182.671875 0 L 8 0 C 12.53125 -4 15.992188 -10.796875 18.390625 -20.390625 C 20.785156 -29.984375 21.984375 -39.707031 21.984375 -49.5625 Z M 180.671875 -167.078125 L 111.921875 -167.078125 L 111.921875 -75.140625 L 180.671875 -75.140625 C 200.390625 -75.140625 214.78125 -79.535156 223.84375 -88.328125 C 232.90625 -97.128906 237.4375 -108.054688 237.4375 -121.109375 C 237.4375 -134.429688 232.90625 -145.421875 223.84375 -154.078125 C 214.78125 -162.742188 200.390625 -167.078125 180.671875 -167.078125 Z M 111.921875 -310.578125 L 111.921875 -238.625 L 175.875 -238.625 C 186.800781 -238.625 195.925781 -242.15625 203.25 -249.21875 C 210.582031 -256.28125 214.25 -264.742188 214.25 -274.609375 C 214.25 -284.460938 210.582031 -292.921875 203.25 -299.984375 C 195.925781 -307.046875 186.800781 -310.578125 175.875 -310.578125 Z M 111.921875 -310.578125 "/></g></g><g style="fill:#ffffff;fill-opacity:1;"><g transform="translate(370.688583, 411.464887)"><path style="stroke:none" d="M 41.96875 0 C 35.570312 -18.914062 30.304688 -36.703125 26.171875 -53.359375 C 22.046875 -70.015625 18.984375 -87.132812 16.984375 -104.71875 C 14.984375 -122.3125 13.984375 -141.898438 13.984375 -163.484375 C 13.984375 -185.335938 16.78125 -207.253906 22.375 -229.234375 C 27.976562 -251.222656 36.304688 -271.941406 47.359375 -291.390625 C 58.421875 -310.847656 72.015625 -328.101562 88.140625 -343.15625 C 104.265625 -358.21875 122.984375 -370.078125 144.296875 -378.734375 C 165.617188 -387.390625 189.203125 -391.71875 215.046875 -391.71875 C 227.566406 -391.71875 239.820312 -390.316406 251.8125 -387.515625 C 263.8125 -384.722656 274.472656 -380.660156 283.796875 -375.328125 C 293.128906 -370.003906 299.660156 -363.742188 303.390625 -356.546875 L 303.390625 -49.96875 C 303.390625 -40.101562 304.585938 -30.304688 306.984375 -20.578125 C 309.378906 -10.859375 312.84375 -4 317.375 0 L 199.453125 0 C 203.984375 -4 207.445312 -10.796875 209.84375 -20.390625 C 212.25 -29.984375 213.453125 -39.707031 213.453125 -49.5625 L 213.453125 -115.125 L 106.328125 -115.125 C 109.253906 -92.46875 114.582031 -71.742188 122.3125 -52.953125 C 130.039062 -34.171875 140.164062 -16.519531 152.6875 0 Z M 106.71875 -191.0625 L 213.453125 -191.0625 L 213.84375 -309.375 C 196.257812 -309.375 181.203125 -305.773438 168.671875 -298.578125 C 156.148438 -291.390625 145.625 -281.863281 137.09375 -270 C 128.570312 -258.144531 121.910156 -245.351562 117.109375 -231.625 C 112.316406 -217.90625 108.851562 -204.382812 106.71875 -191.0625 Z M 106.71875 -191.0625 "/></g></g><g style="fill:#ffffff;fill-opacity:1;"><g transform="translate(706.056667, 411.464887)"><path style="stroke:none" d="M 4 -385.734375 L 149.09375 -385.734375 C 144.300781 -379.867188 141.238281 -374.40625 139.90625 -369.34375 C 138.570312 -364.28125 137.90625 -359.082031 137.90625 -353.75 C 137.90625 -346.019531 139.300781 -336.492188 142.09375 -325.171875 C 144.894531 -313.847656 148.425781 -301.921875 152.6875 -289.390625 C 156.957031 -276.867188 161.289062 -264.742188 165.6875 -253.015625 C 170.082031 -241.296875 174.007812 -231.171875 177.46875 -222.640625 C 180.664062 -231.171875 184.53125 -241.164062 189.0625 -252.625 C 193.59375 -264.082031 197.921875 -276.070312 202.046875 -288.59375 C 206.179688 -301.125 209.644531 -313.050781 212.4375 -324.375 C 215.238281 -335.695312 216.640625 -345.222656 216.640625 -352.953125 C 216.640625 -358.285156 215.972656 -363.484375 214.640625 -368.546875 C 213.316406 -373.609375 210.253906 -379.066406 205.453125 -384.921875 L 350.546875 -384.921875 C 343.890625 -380.660156 338.03125 -374.332031 332.96875 -365.9375 C 327.90625 -357.539062 322.707031 -348.015625 317.375 -337.359375 C 306.976562 -316.835938 297.78125 -298.382812 289.78125 -282 C 281.789062 -265.613281 274.398438 -250.023438 267.609375 -235.234375 C 260.816406 -220.441406 253.820312 -205.25 246.625 -189.65625 C 239.425781 -174.070312 231.300781 -156.6875 222.25 -137.5 L 222.25 -49.5625 C 222.25 -39.707031 223.445312 -29.984375 225.84375 -20.390625 C 228.238281 -10.796875 231.703125 -4 236.234375 0 L 118.3125 0 C 122.84375 -4 126.304688 -10.859375 128.703125 -20.578125 C 131.109375 -30.304688 132.3125 -40.101562 132.3125 -49.96875 L 132.3125 -138.296875 C 123.25 -157.484375 115.117188 -174.867188 107.921875 -190.453125 C 100.722656 -206.046875 93.726562 -221.238281 86.9375 -236.03125 C 80.144531 -250.820312 72.75 -266.410156 64.75 -282.796875 C 56.757812 -299.191406 47.566406 -317.644531 37.171875 -338.15625 C 31.835938 -348.820312 26.707031 -358.347656 21.78125 -366.734375 C 16.851562 -375.128906 10.925781 -381.460938 4 -385.734375 Z M 4 -385.734375 "/></g></g></g></g></g></svg>